<svg width="916" height="200" viewBox="0 0 916 200" fill="none" xmlns="http://www.w3.org/2000/svg">
<path d="M238.24 100V21.76H255.88V51.88H282.88V21.76H300.64V100H282.88V67.36H255.88V100H238.24ZM344.299 101.44C338.619 101.44 333.499 100.2 328.939 97.72C324.379 95.24 320.779 91.68 318.139 87.04C315.499 82.4 314.179 76.8 314.179 70.24C314.179 63.76 315.499 58.2 318.139 53.56C320.859 48.92 324.379 45.36 328.699 42.88C333.019 40.32 337.539 39.04 342.259 39.04C347.939 39.04 352.619 40.32 356.299 42.88C360.059 45.36 362.859 48.76 364.699 53.08C366.619 57.32 367.579 62.16 367.579 67.6C367.579 69.12 367.499 70.64 367.339 72.16C367.179 73.6 367.019 74.68 366.859 75.4H331.219C332.019 79.72 333.819 82.92 336.619 85C339.419 87 342.779 88 346.699 88C350.939 88 355.219 86.68 359.539 84.04L365.419 94.72C362.379 96.8 358.979 98.44 355.219 99.64C351.459 100.84 347.819 101.44 344.299 101.44ZM331.099 63.76H352.579C352.579 60.48 351.779 57.8 350.179 55.72C348.659 53.56 346.139 52.48 342.619 52.48C339.899 52.48 337.459 53.44 335.299 55.36C333.139 57.2 331.739 60 331.099 63.76ZM371.774 100L390.014 69.04L372.854 40.48H391.814L397.094 50.08C397.894 51.76 398.734 53.48 399.614 55.24C400.494 56.92 401.334 58.6 402.134 60.28H402.614C403.254 58.6 403.934 56.92 404.654 55.24C405.374 53.48 406.054 51.76 406.694 50.08L410.774 40.48H429.014L411.734 71.08L430.094 100H411.134L405.374 90.16C404.414 88.48 403.454 86.76 402.494 85C401.614 83.24 400.694 81.52 399.734 79.84H399.254C398.534 81.52 397.774 83.24 396.974 85C396.174 86.68 395.414 88.4 394.694 90.16L390.014 100H371.774ZM455.734 101.44C449.654 101.44 445.414 99.64 443.014 96.04C440.694 92.36 439.534 87.52 439.534 81.52V15.88H457.174V82.24C457.174 84.08 457.494 85.36 458.134 86.08C458.854 86.8 459.574 87.16 460.294 87.16C460.694 87.16 461.014 87.16 461.254 87.16C461.574 87.08 461.974 87 462.454 86.92L464.614 100C463.654 100.4 462.414 100.72 460.894 100.96C459.454 101.28 457.734 101.44 455.734 101.44ZM473.87 100V40.48H491.51V100H473.87ZM482.63 31.72C479.67 31.72 477.27 30.88 475.43 29.2C473.59 27.52 472.67 25.28 472.67 22.48C472.67 19.68 473.59 17.44 475.43 15.76C477.27 14.08 479.67 13.24 482.63 13.24C485.59 13.24 487.99 14.08 489.83 15.76C491.67 17.44 492.59 19.68 492.59 22.48C492.59 25.28 491.67 27.52 489.83 29.2C487.99 30.88 485.59 31.72 482.63 31.72ZM507.034 100V40.48H521.434L522.634 48.04H523.114C525.674 45.64 528.474 43.56 531.514 41.8C534.634 39.96 538.194 39.04 542.194 39.04C548.674 39.04 553.354 41.2 556.234 45.52C559.194 49.76 560.674 55.6 560.674 63.04V100H543.034V65.32C543.034 61 542.434 58.04 541.234 56.44C540.114 54.84 538.274 54.04 535.714 54.04C533.474 54.04 531.554 54.56 529.954 55.6C528.354 56.56 526.594 57.96 524.674 59.8V100H507.034ZM575.706 100V15.88H592.866V64.12H593.346L612.186 40.48H631.386L610.506 64.96L632.946 100H613.866L600.426 76.84L592.866 85.36V100H575.706Z" fill="black"/>
<path d="M242.824 184V166.504L228.712 136.912H237.64L242.752 148.936C243.424 150.712 244.096 152.44 244.768 154.12C245.44 155.752 246.16 157.48 246.928 159.304H247.216C247.984 157.48 248.728 155.752 249.448 154.12C250.168 152.44 250.864 150.712 251.536 148.936L256.648 136.912H265.36L251.176 166.504V184H242.824ZM281.353 184.864C278.425 184.864 275.689 184.144 273.145 182.704C270.601 181.216 268.537 179.104 266.953 176.368C265.369 173.584 264.577 170.248 264.577 166.36C264.577 162.424 265.369 159.088 266.953 156.352C268.537 153.568 270.601 151.456 273.145 150.016C275.689 148.528 278.425 147.784 281.353 147.784C284.329 147.784 287.089 148.528 289.633 150.016C292.177 151.456 294.241 153.568 295.825 156.352C297.409 159.088 298.201 162.424 298.201 166.36C298.201 170.248 297.409 173.584 295.825 176.368C294.241 179.104 292.177 181.216 289.633 182.704C287.089 184.144 284.329 184.864 281.353 184.864ZM281.353 178.096C283.945 178.096 285.985 177.016 287.473 174.856C288.961 172.696 289.705 169.864 289.705 166.36C289.705 162.808 288.961 159.952 287.473 157.792C285.985 155.632 283.945 154.552 281.353 154.552C278.761 154.552 276.721 155.632 275.233 157.792C273.793 159.952 273.073 162.808 273.073 166.36C273.073 169.864 273.793 172.696 275.233 174.856C276.721 177.016 278.761 178.096 281.353 178.096ZM316.909 184.864C313.117 184.864 310.357 183.64 308.629 181.192C306.901 178.744 306.037 175.288 306.037 170.824V148.648H314.317V169.744C314.317 172.672 314.749 174.736 315.613 175.936C316.477 177.136 317.869 177.736 319.789 177.736C321.325 177.736 322.669 177.352 323.821 176.584C325.021 175.816 326.293 174.568 327.637 172.84V148.648H335.917V184H329.149L328.501 178.816H328.285C326.749 180.64 325.069 182.104 323.245 183.208C321.421 184.312 319.309 184.864 316.909 184.864ZM346.404 184V148.648H353.244L353.82 154.912H354.108C355.356 152.608 356.868 150.856 358.644 149.656C360.42 148.408 362.244 147.784 364.116 147.784C365.796 147.784 367.14 148.024 368.148 148.504L366.708 155.704C366.084 155.512 365.508 155.368 364.98 155.272C364.452 155.176 363.804 155.128 363.036 155.128C361.644 155.128 360.18 155.68 358.644 156.784C357.108 157.84 355.788 159.712 354.684 162.4V184H346.404ZM393.078 184L383.718 136.912H392.286L396.39 160.672C396.774 163.168 397.158 165.688 397.542 168.232C397.974 170.728 398.358 173.224 398.694 175.72H398.982C399.51 173.224 400.014 170.728 400.494 168.232C401.022 165.688 401.55 163.168 402.078 160.672L407.838 136.912H415.11L420.87 160.672C421.398 163.12 421.926 165.616 422.454 168.16C422.982 170.656 423.51 173.176 424.038 175.72H424.326C424.71 173.176 425.094 170.656 425.478 168.16C425.862 165.664 426.222 163.168 426.558 160.672L430.662 136.912H438.654L429.654 184H419.286L413.454 159.232C413.07 157.408 412.686 155.584 412.302 153.76C411.966 151.936 411.654 150.136 411.366 148.36H411.078C410.742 150.136 410.382 151.936 409.998 153.76C409.662 155.584 409.302 157.408 408.918 159.232L403.23 184H393.078ZM460.384 184.864C457.12 184.864 454.168 184.144 451.528 182.704C448.888 181.216 446.8 179.104 445.264 176.368C443.728 173.584 442.96 170.248 442.96 166.36C442.96 162.52 443.728 159.208 445.264 156.424C446.848 153.64 448.888 151.504 451.384 150.016C453.88 148.528 456.496 147.784 459.232 147.784C462.448 147.784 465.136 148.504 467.296 149.944C469.456 151.336 471.088 153.304 472.192 155.848C473.296 158.344 473.848 161.248 473.848 164.56C473.848 166.288 473.728 167.632 473.488 168.592H451.024C451.408 171.712 452.536 174.136 454.408 175.864C456.28 177.592 458.632 178.456 461.464 178.456C463 178.456 464.416 178.24 465.712 177.808C467.056 177.328 468.376 176.68 469.672 175.864L472.48 181.048C470.8 182.152 468.928 183.064 466.864 183.784C464.8 184.504 462.64 184.864 460.384 184.864ZM450.952 162.976H466.648C466.648 160.24 466.048 158.104 464.848 156.568C463.648 154.984 461.848 154.192 459.448 154.192C457.384 154.192 455.536 154.96 453.904 156.496C452.32 157.984 451.336 160.144 450.952 162.976ZM498.892 184.864C495.532 184.864 492.316 183.328 489.244 180.256H489.028L488.308 184H481.756V133.168H490.036V146.272L489.82 152.176C491.308 150.88 492.94 149.824 494.716 149.008C496.492 148.192 498.268 147.784 500.044 147.784C504.46 147.784 507.892 149.416 510.34 152.68C512.788 155.944 514.012 160.288 514.012 165.712C514.012 169.744 513.292 173.2 511.852 176.08C510.412 178.912 508.54 181.096 506.236 182.632C503.98 184.12 501.532 184.864 498.892 184.864ZM497.164 178.024C499.516 178.024 501.484 176.992 503.068 174.928C504.652 172.864 505.444 169.84 505.444 165.856C505.444 162.304 504.844 159.544 503.644 157.576C502.444 155.608 500.5 154.624 497.812 154.624C495.316 154.624 492.724 155.944 490.036 158.584V175.072C491.284 176.128 492.508 176.896 493.708 177.376C494.956 177.808 496.108 178.024 497.164 178.024ZM534.35 184.864C530.654 184.864 527.534 184.24 524.99 182.992C522.494 181.696 520.43 180.16 518.798 178.384L522.758 173.056C524.15 174.448 525.734 175.648 527.51 176.656C529.286 177.616 531.326 178.096 533.63 178.096C536.126 178.096 538.142 177.496 539.678 176.296C541.262 175.048 542.054 173.344 542.054 171.184C542.054 169.6 541.646 168.232 540.83 167.08C540.062 165.88 538.694 164.968 536.726 164.344C534.806 163.72 532.094 163.408 528.59 163.408V157.36C533.102 157.36 536.222 156.664 537.95 155.272C539.678 153.88 540.542 152.128 540.542 150.016C540.542 148.096 539.942 146.608 538.742 145.552C537.542 144.448 535.886 143.896 533.774 143.896C531.998 143.896 530.366 144.304 528.878 145.12C527.39 145.888 525.95 146.92 524.558 148.216L520.31 143.104C522.278 141.376 524.366 139.984 526.574 138.928C528.83 137.872 531.326 137.344 534.062 137.344C538.478 137.344 542.054 138.4 544.79 140.512C547.526 142.576 548.894 145.552 548.894 149.44C548.894 151.984 548.174 154.144 546.734 155.92C545.342 157.648 543.398 158.992 540.902 159.952V160.24C543.59 160.96 545.846 162.28 547.67 164.2C549.494 166.12 550.406 168.592 550.406 171.616C550.406 174.4 549.662 176.776 548.174 178.744C546.734 180.712 544.79 182.224 542.342 183.28C539.942 184.336 537.278 184.864 534.35 184.864ZM574.374 184V136.912H602.742V143.968H582.726V155.992H599.646V163.048H582.726V176.944H603.462V184H574.374ZM612.397 184V148.648H619.237L619.813 153.4H620.101C621.685 151.864 623.413 150.544 625.285 149.44C627.157 148.336 629.293 147.784 631.693 147.784C635.485 147.784 638.245 149.008 639.973 151.456C641.701 153.904 642.565 157.36 642.565 161.824V184H634.285V162.904C634.285 159.976 633.853 157.912 632.989 156.712C632.125 155.512 630.709 154.912 628.741 154.912C627.205 154.912 625.837 155.296 624.637 156.064C623.485 156.784 622.165 157.864 620.677 159.304V184H612.397ZM665.142 184.864C661.062 184.864 658.158 183.688 656.43 181.336C654.75 178.936 653.91 175.84 653.91 172.048V155.2H648.87V149.008L654.342 148.648L655.35 139H662.262V148.648H671.262V155.2H662.262V172.048C662.262 176.176 663.918 178.24 667.23 178.24C667.854 178.24 668.502 178.168 669.174 178.024C669.846 177.832 670.422 177.64 670.902 177.448L672.342 183.568C671.382 183.904 670.278 184.192 669.03 184.432C667.83 184.72 666.534 184.864 665.142 184.864ZM678.701 184V148.648H685.541L686.117 154.912H686.405C687.653 152.608 689.165 150.856 690.941 149.656C692.717 148.408 694.541 147.784 696.413 147.784C698.093 147.784 699.437 148.024 700.445 148.504L699.005 155.704C698.381 155.512 697.805 155.368 697.277 155.272C696.749 155.176 696.101 155.128 695.333 155.128C693.941 155.128 692.477 155.68 690.941 156.784C689.405 157.84 688.085 159.712 686.981 162.4V184H678.701ZM709.062 198.544C708.102 198.544 707.262 198.472 706.542 198.328C705.822 198.184 705.126 198.016 704.454 197.824L705.966 191.344C706.302 191.44 706.686 191.536 707.118 191.632C707.598 191.776 708.054 191.848 708.486 191.848C710.358 191.848 711.846 191.272 712.95 190.12C714.102 189.016 714.966 187.576 715.542 185.8L716.19 183.568L702.294 148.648H710.718L716.838 166C717.366 167.536 717.87 169.168 718.35 170.896C718.878 172.576 719.406 174.256 719.934 175.936H720.222C720.654 174.304 721.086 172.648 721.518 170.968C721.998 169.24 722.454 167.584 722.886 166L728.214 148.648H736.206L723.39 185.584C721.902 189.568 720.102 192.712 717.99 195.016C715.878 197.368 712.902 198.544 709.062 198.544ZM757.468 184V136.912H772.3C775.804 136.912 778.924 137.368 781.66 138.28C784.396 139.192 786.556 140.704 788.14 142.816C789.724 144.928 790.516 147.808 790.516 151.456C790.516 154.912 789.724 157.768 788.14 160.024C786.556 162.28 784.42 163.96 781.732 165.064C779.044 166.168 775.996 166.72 772.588 166.72H765.82V184H757.468ZM765.82 160.024H771.94C778.852 160.024 782.308 157.168 782.308 151.456C782.308 148.48 781.396 146.44 779.572 145.336C777.796 144.184 775.156 143.608 771.652 143.608H765.82V160.024ZM811.509 184.864C808.581 184.864 805.845 184.144 803.301 182.704C800.757 181.216 798.693 179.104 797.109 176.368C795.525 173.584 794.733 170.248 794.733 166.36C794.733 162.424 795.525 159.088 797.109 156.352C798.693 153.568 800.757 151.456 803.301 150.016C805.845 148.528 808.581 147.784 811.509 147.784C814.485 147.784 817.245 148.528 819.789 150.016C822.333 151.456 824.397 153.568 825.981 156.352C827.565 159.088 828.357 162.424 828.357 166.36C828.357 170.248 827.565 173.584 825.981 176.368C824.397 179.104 822.333 181.216 819.789 182.704C817.245 184.144 814.485 184.864 811.509 184.864ZM811.509 178.096C814.101 178.096 816.141 177.016 817.629 174.856C819.117 172.696 819.861 169.864 819.861 166.36C819.861 162.808 819.117 159.952 817.629 157.792C816.141 155.632 814.101 154.552 811.509 154.552C808.917 154.552 806.877 155.632 805.389 157.792C803.949 159.952 803.229 162.808 803.229 166.36C803.229 169.864 803.949 172.696 805.389 174.856C806.877 177.016 808.917 178.096 811.509 178.096ZM836.553 184V148.648H844.833V184H836.553ZM840.729 142.456C839.241 142.456 838.041 142.024 837.129 141.16C836.217 140.296 835.761 139.144 835.761 137.704C835.761 136.312 836.217 135.184 837.129 134.32C838.041 133.456 839.241 133.024 840.729 133.024C842.217 133.024 843.417 133.456 844.329 134.32C845.241 135.184 845.697 136.312 845.697 137.704C845.697 139.144 845.241 140.296 844.329 141.16C843.417 142.024 842.217 142.456 840.729 142.456ZM855.397 184V148.648H862.237L862.813 153.4H863.101C864.685 151.864 866.413 150.544 868.285 149.44C870.157 148.336 872.293 147.784 874.693 147.784C878.485 147.784 881.245 149.008 882.973 151.456C884.701 153.904 885.565 157.36 885.565 161.824V184H877.285V162.904C877.285 159.976 876.853 157.912 875.989 156.712C875.125 155.512 873.709 154.912 871.741 154.912C870.205 154.912 868.837 155.296 867.637 156.064C866.485 156.784 865.165 157.864 863.677 159.304V184H855.397ZM908.142 184.864C904.062 184.864 901.158 183.688 899.43 181.336C897.75 178.936 896.91 175.84 896.91 172.048V155.2H891.87V149.008L897.342 148.648L898.35 139H905.262V148.648H914.262V155.2H905.262V172.048C905.262 176.176 906.918 178.24 910.23 178.24C910.854 178.24 911.502 178.168 912.174 178.024C912.846 177.832 913.422 177.64 913.902 177.448L915.342 183.568C914.382 183.904 913.278 184.192 912.03 184.432C910.83 184.72 909.534 184.864 908.142 184.864Z" fill="black"/>
<path d="M66.0581 0.262636C52.8795 2.05075 42.2352 10.9317 38.8771 22.9717C38.3703 24.7598 37.9268 28.2764 37.9268 30.8393C37.9268 39.6011 41.2848 46.8727 48.0642 52.9523C58.6451 62.3101 72.4573 64.2174 85.4459 58.0782C87.5368 57.1246 89.3742 56.2901 89.5642 56.2901C89.8177 56.2901 124.602 96.9399 125.552 98.3704C125.742 98.728 124.792 100.457 123.335 102.245C117.252 109.755 114.084 119.768 114.844 129.066C115.225 133.715 115.161 134.371 114.147 134.848C113.514 135.146 101.412 139.378 87.22 144.206L61.4329 153.027L56.9978 148.557C50.0283 141.523 42.8054 138.543 32.8581 138.543C21.3267 138.543 11.6962 143.371 5.3603 152.371C-6.99468 169.895 3.01602 193.677 25.0649 199.041C45.1497 203.988 65.3612 189.147 65.4879 169.418V164.232L92.0986 155.113C106.734 150.106 118.899 145.994 119.216 145.994C119.47 145.994 121.307 148.02 123.335 150.464C131.951 160.954 143.799 166.557 157.422 166.557C164.581 166.557 169.967 165.365 176.493 162.325C190.178 155.948 199.175 142.954 199.935 128.411C200.316 120.901 199.048 115.357 195.31 108.145C191.445 100.814 185.109 94.7345 177.57 91.0391C170.03 87.3437 166.165 86.4496 157.675 86.4496C149.882 86.39 145.89 87.2245 139.428 90.0854C136.577 91.3371 135.88 91.4563 135.246 90.8007C131.825 87.2841 98.7513 47.8264 98.7513 47.2304C98.7513 46.8727 99.3215 45.3827 100.082 43.9522C106.988 30.6009 101.983 13.4947 88.8673 5.32895C82.278 1.21629 73.5344 -0.750628 66.0581 0.262636ZM41.4749 152.014C45.3398 153.742 49.5214 157.795 51.4222 161.67C52.4359 163.756 52.8161 165.663 52.8161 168.941C52.8161 172.815 52.5627 173.948 50.7253 177.464C46.9237 184.736 40.0176 188.432 31.3374 187.895C23.9245 187.418 17.9687 183.663 14.6741 177.405C13.1534 174.484 12.9 173.292 12.9 168.941C12.9 164.59 13.1534 163.458 14.6741 160.775C19.9962 151.179 31.3374 147.484 41.4749 152.014Z" fill="#5BCFC5"/>
</svg>
