<svg width="40" height="40" viewBox="0 0 40 40" fill="none" xmlns="http://www.w3.org/2000/svg">
<g clip-path="url(#clip0_111_8)">
<path d="M11.875 0H12.0469C14.5391 0 16.8516 1.32109 18.1172 3.47266L20 6.67656L21.8828 3.47266C23.1484 1.32109 25.4609 0 27.9531 0H28.125C31.9219 0 35 3.07813 35 6.875C35 8 34.7266 8.99219 34.25 10H37.5C38.8828 10 40 11.1172 40 12.5V17.5C40 18.8828 38.8828 20 37.5 20H2.5C1.11953 20 0 18.8828 0 17.5V12.5C0 11.1172 1.11953 10 2.5 10H5.75C5.27031 8.99219 5 8 5 6.875C5 3.07813 8.07813 0 11.875 0ZM14.8828 5.37344C14.2891 4.36797 13.2109 3.75 12.0469 3.75H11.875C10.1484 3.75 8.75 5.14922 8.75 6.875C8.75 8.60156 10.1484 10 11.875 10H17.6016L14.8828 5.37344ZM28.125 3.75H27.9531C26.7891 3.75 25.7109 4.36797 25.1172 5.37344L22.3984 10H28.125C29.8516 10 31.25 8.60156 31.25 6.875C31.25 5.14922 29.8516 3.75 28.125 3.75ZM2.5 22.5H17.5V40H6.25C4.17891 40 2.5 38.3203 2.5 36.25V22.5ZM22.5 40V22.5H37.5V36.25C37.5 38.3203 35.8203 40 33.75 40H22.5Z" fill="#1890FF"/>
</g>
<defs>
<clipPath id="clip0_111_8">
<rect width="40" height="40" fill="white"/>
</clipPath>
</defs>
</svg>