<svg width="30" height="30" viewBox="0 0 30 30" fill="none" xmlns="http://www.w3.org/2000/svg">
  <circle cx="15" cy="15" r="15" fill="#076AE0" />
  <path
    d="M12.9544 8.0197C11.966 8.15381 11.1676 8.81988 10.9158 9.72287C10.8778 9.85698 10.8445 10.1207 10.8445 10.313C10.8445 10.9701 11.0964 11.5155 11.6048 11.9714C12.3984 12.6733 13.4343 12.8163 14.4084 12.3559C14.5653 12.2843 14.7031 12.2218 14.7173 12.2218C14.7363 12.2218 17.3451 15.2705 17.4164 15.3778C17.4307 15.4046 17.3594 15.5342 17.2501 15.6683C16.7939 16.2316 16.5563 16.9826 16.6133 17.68C16.6418 18.0287 16.6371 18.0778 16.5611 18.1136C16.5135 18.1359 15.6059 18.4533 14.5415 18.8154L12.6075 19.477L12.2748 19.1418C11.7521 18.6143 11.2104 18.3907 10.4644 18.3907C9.59951 18.3907 8.87721 18.7528 8.40202 19.4279C7.4754 20.7421 8.2262 22.5258 9.87987 22.9281C11.3862 23.2991 12.9021 22.186 12.9116 20.7064V20.3174L14.9074 19.6335C16.0051 19.258 16.9175 18.9495 16.9412 18.9495C16.9602 18.9495 17.098 19.1015 17.2501 19.2848C17.8963 20.0716 18.785 20.4918 19.8066 20.4918C20.3436 20.4918 20.7475 20.4024 21.2369 20.1744C22.2634 19.6961 22.9381 18.7215 22.9952 17.6308C23.0237 17.0675 22.9286 16.6518 22.6483 16.1109C22.3584 15.5611 21.8832 15.1051 21.3177 14.8279C20.7523 14.5508 20.4624 14.4837 19.8256 14.4837C19.2411 14.4793 18.9418 14.5418 18.4571 14.7564C18.2432 14.8503 18.191 14.8592 18.1434 14.8101C17.8868 14.5463 15.4063 11.587 15.4063 11.5423C15.4063 11.5155 15.4491 11.4037 15.5061 11.2964C16.0241 10.2951 15.6487 9.0121 14.665 8.39967C14.1708 8.09122 13.5151 7.9437 12.9544 8.0197ZM11.1106 19.401C11.4005 19.5307 11.7141 19.8346 11.8567 20.1252C11.9327 20.2817 11.9612 20.4247 11.9612 20.6706C11.9612 20.9612 11.9422 21.0461 11.8044 21.3098C11.5193 21.8552 11.0013 22.1324 10.3503 22.0921C9.79433 22.0564 9.34765 21.7747 9.10055 21.3054C8.98651 21.0863 8.9675 20.9969 8.9675 20.6706C8.9675 20.3443 8.98651 20.2593 9.10055 20.0582C9.49972 19.3384 10.3503 19.0613 11.1106 19.401Z"
    fill="white" />
</svg>