<svg width="253" height="219" viewBox="0 0 253 219" fill="none" xmlns="http://www.w3.org/2000/svg">
<circle cx="109.5" cy="109.5" r="109.5" fill="#076AE0"/>
<path d="M94.9885 53.6199C87.6975 54.6092 81.8086 59.5225 79.9508 66.1835C79.6704 67.1727 79.425 69.1183 79.425 70.5362C79.425 75.3836 81.2828 79.4066 85.0335 82.77C90.8873 87.9471 98.5288 89.0024 105.715 85.6059C106.871 85.0783 107.888 84.6167 107.993 84.6167C108.133 84.6167 127.377 107.106 127.903 107.897C128.008 108.095 127.482 109.051 126.676 110.041C123.311 114.195 121.558 119.735 121.979 124.879C122.189 127.452 122.154 127.814 121.594 128.078C121.243 128.243 114.548 130.584 106.696 133.255L92.4296 138.135L89.9759 135.662C86.1201 131.771 82.1241 130.123 76.6208 130.123C70.2412 130.123 64.9132 132.794 61.4079 137.773C54.5726 147.467 60.111 160.625 72.3093 163.592C83.4211 166.329 94.6029 158.118 94.673 147.204V144.335L109.395 139.29C117.492 136.52 124.222 134.244 124.398 134.244C124.538 134.244 125.554 135.366 126.676 136.718C131.443 142.521 137.998 145.621 145.535 145.621C149.496 145.621 152.475 144.961 156.085 143.28C163.657 139.751 168.634 132.563 169.055 124.517C169.265 120.362 168.564 117.295 166.496 113.305C164.358 109.249 160.853 105.886 156.681 103.841C152.51 101.797 150.372 101.302 145.675 101.302C141.363 101.269 139.155 101.731 135.58 103.314C134.002 104.006 133.617 104.072 133.266 103.709C131.373 101.764 113.076 79.9342 113.076 79.6044C113.076 79.4066 113.391 78.5822 113.812 77.7908C117.633 70.4043 114.863 60.9404 107.607 56.4228C103.962 54.1475 99.1247 53.0593 94.9885 53.6199ZM81.388 137.575C83.5262 138.531 85.8397 140.774 86.8913 142.917C87.4521 144.071 87.6624 145.126 87.6624 146.94C87.6624 149.083 87.5222 149.71 86.5057 151.655C84.4025 155.678 80.5818 157.723 75.7796 157.426C71.6784 157.162 68.3834 155.085 66.5607 151.622C65.7194 150.007 65.5792 149.347 65.5792 146.94C65.5792 144.533 65.7194 143.906 66.5607 142.422C69.5051 137.113 75.7796 135.069 81.388 137.575Z" fill="white"/>
<rect x="102" y="160" width="151" height="59" rx="15" fill="white" fill-opacity="0.95"/>
<path d="M128.062 205H139.158C141.428 205 143.391 204.626 145.046 203.879C146.702 203.132 147.983 202.078 148.892 200.715C149.8 199.353 150.254 197.756 150.254 195.925V195.881C150.254 194.49 149.91 193.245 149.221 192.146C148.533 191.033 147.603 190.146 146.431 189.487C145.259 188.813 143.948 188.44 142.498 188.367V188.213C143.699 188.052 144.775 187.656 145.728 187.026C146.694 186.382 147.456 185.569 148.013 184.587C148.569 183.606 148.848 182.515 148.848 181.313V181.27C148.848 179.614 148.445 178.193 147.639 177.007C146.833 175.82 145.676 174.905 144.167 174.26C142.673 173.616 140.879 173.293 138.784 173.293H128.062V178.984H136.631C137.979 178.984 139.041 179.299 139.817 179.929C140.593 180.544 140.981 181.401 140.981 182.5V182.544C140.981 183.73 140.557 184.661 139.707 185.334C138.872 185.994 137.649 186.323 136.038 186.323H128.062V191.421H136.631C137.817 191.421 138.806 191.567 139.597 191.86C140.403 192.153 141.003 192.593 141.399 193.179C141.809 193.765 142.014 194.475 142.014 195.31V195.354C142.014 196.628 141.567 197.61 140.674 198.298C139.795 198.972 138.528 199.309 136.873 199.309H128.062V205ZM124.019 205H132.083V173.293H124.019V205ZM153.638 205H175.369V198.518H161.702V192.102H174.556V186.038H161.702V179.775H175.369V173.293H153.638V205ZM187.278 205H195.342V179.775H204.065V173.293H178.533V179.775H187.278V205ZM201.494 205H209.976L217.029 180.193H219.6V173.293H212.173L201.494 205ZM207.734 198.057H226.499L224.697 192.234H209.536L207.734 198.057ZM224.258 205H232.739L222.061 173.293H217.183V180.193L224.258 205Z" fill="#076AE0"/>
</svg>
