<svg width="14" height="14" viewBox="0 0 14 14" fill="none" xmlns="http://www.w3.org/2000/svg">
<path d="M13 0H1C0.4375 0 0 0.46875 0 1V13C0 13.5625 0.4375 14 1 14H13C13.5312 14 14 13.5625 14 13V1C14 0.46875 13.5312 0 13 0ZM12.5 12.5H1.5V10.5H12.5V12.5ZM12.5 9H12L8.9375 5.21875C8.71875 4.9375 8.25 4.9375 8.03125 5.21875L6.03125 7.6875L5 6.28125C4.75 5.9375 4.21875 5.9375 3.96875 6.28125L2 9H1.5V1.5H12.5V9ZM4.5 4.5C5.03125 4.5 5.5 4.0625 5.5 3.5C5.5 2.96875 5.03125 2.5 4.5 2.5C3.9375 2.5 3.5 2.96875 3.5 3.5C3.5 4.0625 3.9375 4.5 4.5 4.5Z" fill="white"/>
</svg>