<svg
  width="19" 
  height="18" 
  viewBox="0 0 19 18" 
  fill="none"
  xmlns="http://www.w3.org/2000/svg"
>
  <path
    d="M2.66946 8.341H6.17155C7.80962 8.341 8.591 7.56904 8.591 5.90272V2.4477C8.591 0.781381 7.80962 0 6.17155 0H2.66946C1.03138 0 0.25 0.781381 0.25 2.4477V5.90272C0.25 7.56904 1.03138 8.341 2.66946 8.341ZM12.3285 8.341H15.8305C17.4686 8.341 18.25 7.56904 18.25 5.90272V2.4477C18.25 0.781381 17.4686 0 15.8305 0H12.3285C10.6904 0 9.90899 0.781381 9.90899 2.4477V5.90272C9.90899 7.56904 10.6904 8.341 12.3285 8.341ZM2.54707 6.57113C2.17992 6.57113 2.01987 6.40167 2.01987 6.03452V2.30649C2.01987 1.93933 2.17992 1.76987 2.54707 1.76987H6.29393C6.65167 1.76987 6.82113 1.93933 6.82113 2.30649V6.03452C6.82113 6.40167 6.65167 6.57113 6.29393 6.57113H2.54707ZM12.2061 6.57113C11.8389 6.57113 11.6789 6.40167 11.6789 6.03452V2.30649C11.6789 1.93933 11.8389 1.76987 12.2061 1.76987H15.9529C16.3201 1.76987 16.4801 1.93933 16.4801 2.30649V6.03452C16.4801 6.40167 16.3201 6.57113 15.9529 6.57113H12.2061ZM3.51674 5.28138H5.31485C5.46548 5.28138 5.53138 5.2249 5.53138 5.03661V3.29498C5.53138 3.12552 5.46548 3.05962 5.31485 3.05962H3.51674C3.35669 3.05962 3.30962 3.12552 3.30962 3.29498V5.03661C3.30962 5.2249 3.35669 5.28138 3.51674 5.28138ZM13.204 5.28138H15.0021C15.1621 5.28138 15.228 5.2249 15.228 5.03661V3.29498C15.228 3.12552 15.1621 3.05962 15.0021 3.05962H13.204C13.0533 3.05962 12.9969 3.12552 12.9969 3.29498V5.03661C12.9969 5.2249 13.0533 5.28138 13.204 5.28138ZM2.66946 18H6.17155C7.80962 18 8.591 17.228 8.591 15.5617V12.1067C8.591 10.4404 7.80962 9.65899 6.17155 9.65899H2.66946C1.03138 9.65899 0.25 10.4404 0.25 12.1067V15.5617C0.25 17.228 1.03138 18 2.66946 18ZM10.6056 12.3044H12.4038C12.5638 12.3044 12.6297 12.2479 12.6297 12.0596V10.318C12.6297 10.1485 12.5638 10.0826 12.4038 10.0826H10.6056C10.455 10.0826 10.3985 10.1485 10.3985 10.318V12.0596C10.3985 12.2479 10.455 12.3044 10.6056 12.3044ZM15.7176 12.3044H17.5157C17.6757 12.3044 17.7322 12.2479 17.7322 12.0596V10.318C17.7322 10.1485 17.6757 10.0826 17.5157 10.0826H15.7176C15.5669 10.0826 15.5105 10.1485 15.5105 10.318V12.0596C15.5105 12.2479 15.5669 12.3044 15.7176 12.3044ZM2.54707 16.2301C2.17992 16.2301 2.01987 16.0607 2.01987 15.7029V11.9749C2.01987 11.5983 2.17992 11.4289 2.54707 11.4289H6.29393C6.65167 11.4289 6.82113 11.5983 6.82113 11.9749V15.7029C6.82113 16.0607 6.65167 16.2301 6.29393 16.2301H2.54707ZM13.1851 14.8651H14.9833C15.1433 14.8651 15.2092 14.7992 15.2092 14.6203V12.8692C15.2092 12.6998 15.1433 12.6339 14.9833 12.6339H13.1851C13.0345 12.6339 12.978 12.6998 12.978 12.8692V14.6203C12.978 14.7992 13.0345 14.8651 13.1851 14.8651ZM3.51674 14.9404H5.31485C5.46548 14.9404 5.53138 14.8839 5.53138 14.6956V12.954C5.53138 12.7845 5.46548 12.7186 5.31485 12.7186H3.51674C3.35669 12.7186 3.30962 12.7845 3.30962 12.954V14.6956C3.30962 14.8839 3.35669 14.9404 3.51674 14.9404ZM10.6056 17.4163H12.4038C12.5638 17.4163 12.6297 17.3504 12.6297 17.1715V15.4299C12.6297 15.251 12.5638 15.1946 12.4038 15.1946H10.6056C10.455 15.1946 10.3985 15.251 10.3985 15.4299V17.1715C10.3985 17.3504 10.455 17.4163 10.6056 17.4163ZM15.7176 17.4163H17.5157C17.6757 17.4163 17.7322 17.3504 17.7322 17.1715V15.4299C17.7322 15.251 17.6757 15.1946 17.5157 15.1946H15.7176C15.5669 15.1946 15.5105 15.251 15.5105 15.4299V17.1715C15.5105 17.3504 15.5669 17.4163 15.7176 17.4163Z"
    fill="white" 
  />
</svg>