<svg
  width="19" 
  height="19" 
  viewBox="0 0 19 19" 
  fill="none"
  xmlns="http://www.w3.org/2000/svg"
>
    <path 
      fill-rule="evenodd" 
      clip-rule="evenodd"
      d="M18.0777 3.42029C18.8438 1.3912 16.8591 -0.593518 14.83 0.172603L2.18651 4.94641C-0.510074 5.96456 -0.359061 9.82917 2.40876 10.6338L5.91591 11.6533C6.24454 11.7488 6.50149 12.0058 6.59702 12.3344L7.61653 15.8415C8.42113 18.6093 12.2857 18.7604 13.3039 16.0638L18.0777 3.42029ZM14.1917 2.55142L2.89297 6.81748C1.9941 7.15687 2.04445 8.44507 2.96705 8.71327L6.4742 9.73279C6.5142 9.74442 6.55385 9.75685 6.59313 9.77005L14.1917 2.55142ZM8.17958 11.0216C8.32473 11.2534 8.4392 11.5067 8.51752 11.7761L9.53703 15.2832C9.80523 16.2058 11.0934 16.2562 11.4328 15.3573L15.8051 3.77732L8.17958 11.0216Z"
      fill="white" 
    />
</svg>