<svg width="30" height="30" viewBox="0 0 30 30" fill="none" xmlns="http://www.w3.org/2000/svg">
  <circle cx="15" cy="15" r="15" fill="#076AE0" />
  <path
    d="M10.7978 11.0468H20.1728C20.2823 11.0468 20.3917 11.0537 20.5004 11.0676C20.4635 10.8092 20.3748 10.5608 20.2394 10.3376C20.104 10.1144 19.9248 9.92088 19.7126 9.76878C19.5004 9.61668 19.2596 9.50913 19.0047 9.4526C18.7499 9.39608 18.4862 9.39175 18.2296 9.43989L10.5195 10.7562H10.5107C10.0268 10.8487 9.59638 11.1226 9.3075 11.5217C9.74273 11.2122 10.2637 11.0461 10.7978 11.0468V11.0468Z"
    fill="white" />
  <path
    d="M20.1729 11.75H10.7979C10.3007 11.7505 9.82414 11.9483 9.47263 12.2998C9.12111 12.6513 8.92339 13.1279 8.92285 13.625V19.25C8.92339 19.7471 9.12111 20.2237 9.47263 20.5752C9.82414 20.9267 10.3007 21.1245 10.7979 21.125H20.1729C20.67 21.1245 21.1466 20.9267 21.4981 20.5752C21.8496 20.2237 22.0473 19.7471 22.0479 19.25V13.625C22.0473 13.1279 21.8496 12.6513 21.4981 12.2998C21.1466 11.9483 20.67 11.7505 20.1729 11.75V11.75ZM18.7812 17.375C18.5958 17.375 18.4146 17.32 18.2604 17.217C18.1062 17.114 17.9861 16.9676 17.9151 16.7963C17.8442 16.625 17.8256 16.4365 17.8618 16.2546C17.8979 16.0727 17.9872 15.9057 18.1183 15.7746C18.2494 15.6435 18.4165 15.5542 18.5984 15.518C18.7802 15.4818 18.9687 15.5004 19.14 15.5714C19.3113 15.6423 19.4577 15.7625 19.5608 15.9167C19.6638 16.0708 19.7188 16.2521 19.7188 16.4375C19.7188 16.6861 19.62 16.9246 19.4442 17.1004C19.2683 17.2762 19.0299 17.375 18.7812 17.375Z"
    fill="white" />
  <path
    d="M8.9375 15.6025V12.6875C8.9375 12.0526 9.28906 10.9883 10.5093 10.7577C11.5449 10.5635 12.5703 10.5635 12.5703 10.5635C12.5703 10.5635 13.2441 11.0322 12.6875 11.0322C12.1309 11.0322 12.1455 11.75 12.6875 11.75C13.2295 11.75 12.6875 12.4385 12.6875 12.4385L10.5049 14.9141L8.9375 15.6025Z"
    fill="white" />
</svg>