<svg width="64" height="64" viewBox="0 0 64 64" fill="none" xmlns="http://www.w3.org/2000/svg">
<rect x="12" y="6" width="32" height="52" rx="5" fill="#336DFF"/>
<path d="M19 6H37L35.5528 8.89443C35.214 9.572 34.5215 10 33.7639 10H22.2361C21.4785 10 20.786 9.572 20.4472 8.89443L19 6Z" fill="#C8D1EA"/>
<rect x="23" y="53" width="10" height="2" rx="1" fill="#C8D1EA"/>
<path d="M23.0779 22.5467C23.1638 21.2082 24.2235 20.1914 25.5482 19.9813C27.0166 19.7484 28.9288 19.3953 30.4019 18.9493C32.2097 18.4019 34.6785 17.3141 36.1773 16.6236C37.016 16.2371 37.984 16.2371 38.8227 16.6236C40.3215 17.3141 42.7903 18.4019 44.5981 18.9493C46.0712 19.3953 47.9834 19.7484 49.4518 19.9813C50.7765 20.1914 51.8362 21.2082 51.9221 22.5467C52.2898 28.2723 51.8912 43.2668 38.3335 47.743C37.7991 47.9195 37.201 47.9195 36.6665 47.743C23.1088 43.2668 22.7102 28.2723 23.0779 22.5467Z" fill="#C8D1EA"/>
<path fill-rule="evenodd" clip-rule="evenodd" d="M35.5932 43.2918C34.9605 43.0052 34.3733 42.6827 33.8285 42.3295L39.1001 20.7698C39.6445 21.0222 40.2753 21.3048 40.9055 21.5659L35.5932 43.2918ZM37.1978 20.3704L32.1465 41.0288C30.8515 39.8421 29.8724 38.4532 29.1356 36.9836L32.7817 22.0719C33.8702 21.692 35.1753 21.11 36.1367 20.6594C36.4748 20.501 36.834 20.4047 37.1978 20.3704Z" fill="white"/>
<path d="M27.0268 25.4791C27.0835 24.1377 28.1414 23.1162 29.4631 22.8801C30.4091 22.7111 31.4902 22.4847 32.36 22.2119C33.5168 21.8492 35.0474 21.1699 36.1368 20.6594C36.9996 20.255 38.0004 20.255 38.8632 20.6594C39.9526 21.1699 41.4832 21.8492 42.64 22.2119C43.5098 22.4847 44.5909 22.7111 45.5369 22.8801C46.8586 23.1162 47.9165 24.1377 47.9732 25.4791C48.1678 30.0821 47.5256 40.4032 38.3532 43.7195C37.8058 43.9174 37.1942 43.9174 36.6468 43.7195C27.4744 40.4032 26.8322 30.0821 27.0268 25.4791Z" stroke="#336DFF" stroke-width="2"/>
</svg>
