<svg width="248" height="65" viewBox="0 0 248 65" fill="none" xmlns="http://www.w3.org/2000/svg">
<path d="M20.1965 0.0853565C16.1673 0.666493 12.9129 3.5528 11.8862 7.46579C11.7312 8.04692 11.5956 9.18983 11.5956 10.0228C11.5956 12.8704 12.6223 15.2336 14.695 17.2095C17.93 20.2508 22.153 20.8707 26.1241 18.8754C26.7633 18.5655 27.3251 18.2943 27.3832 18.2943C27.4607 18.2943 38.0955 31.5055 38.386 31.9704C38.4441 32.0866 38.1536 32.6484 37.708 33.2295C35.8484 35.6703 34.8798 38.9246 35.1123 41.9465C35.2285 43.4575 35.2091 43.6706 34.8992 43.8255C34.7055 43.9224 31.0056 45.2978 26.6664 46.8668L18.7824 49.7338L17.4264 48.2809C15.2956 45.9951 13.0872 45.0266 10.046 45.0266C6.52039 45.0266 3.57597 46.5956 1.63885 49.5207C-2.13854 55.2158 0.922111 62.9449 7.66329 64.6883C13.804 66.2961 19.9834 61.4727 20.0221 55.0608V53.3756L28.158 50.4118C32.6328 48.7846 36.352 47.448 36.4489 47.448C36.5264 47.448 37.0882 48.1066 37.708 48.9008C40.3425 52.3101 43.9649 54.131 48.1297 54.131C50.3187 54.131 51.9653 53.7436 53.9605 52.7557C58.1447 50.683 60.8954 46.46 61.1278 41.7335C61.2441 39.2927 60.8566 37.4912 59.7137 35.1472C58.5321 32.7646 56.595 30.7887 54.2898 29.5877C51.9846 28.3867 50.803 28.0961 48.2072 28.0961C45.8246 28.0768 44.6042 28.348 42.6283 29.2778C41.7566 29.6846 41.5435 29.7233 41.3498 29.5102C40.3038 28.3673 30.192 15.5436 30.192 15.3499C30.192 15.2336 30.3663 14.7494 30.5988 14.2845C32.7103 9.9453 31.1799 4.38576 27.1701 1.73191C25.1555 0.395296 22.4823 -0.243954 20.1965 0.0853565V0.0853565ZM12.6804 49.4045C13.8621 49.9662 15.1406 51.2835 15.7217 52.5426C16.0317 53.2206 16.1479 53.8405 16.1479 54.9059C16.1479 56.165 16.0704 56.5331 15.5086 57.676C14.3464 60.0392 12.2349 61.2403 9.58104 61.0659C7.31461 60.911 5.49372 59.6906 4.48642 57.6566C4.02151 56.7074 3.94402 56.32 3.94402 54.9059C3.94402 53.4918 4.02151 53.1237 4.48642 52.252C6.1136 49.1333 9.58104 47.9322 12.6804 49.4045V49.4045Z" fill="white"/>
<path d="M78.31 32V12.44H82.72V19.97H89.47V12.44H93.91V32H89.47V23.84H82.72V32H78.31ZM104.825 32.36C103.405 32.36 102.125 32.05 100.985 31.43C99.8448 30.81 98.9448 29.92 98.2848 28.76C97.6248 27.6 97.2948 26.2 97.2948 24.56C97.2948 22.94 97.6248 21.55 98.2848 20.39C98.9648 19.23 99.8448 18.34 100.925 17.72C102.005 17.08 103.135 16.76 104.315 16.76C105.735 16.76 106.905 17.08 107.825 17.72C108.765 18.34 109.465 19.19 109.925 20.27C110.405 21.33 110.645 22.54 110.645 23.9C110.645 24.28 110.625 24.66 110.585 25.04C110.545 25.4 110.505 25.67 110.465 25.85H101.555C101.755 26.93 102.205 27.73 102.905 28.25C103.605 28.75 104.445 29 105.425 29C106.485 29 107.555 28.67 108.635 28.01L110.105 30.68C109.345 31.2 108.495 31.61 107.555 31.91C106.615 32.21 105.705 32.36 104.825 32.36ZM101.525 22.94H106.895C106.895 22.12 106.695 21.45 106.295 20.93C105.915 20.39 105.285 20.12 104.405 20.12C103.725 20.12 103.115 20.36 102.575 20.84C102.035 21.3 101.685 22 101.525 22.94ZM111.693 32L116.253 24.26L111.963 17.12H116.703L118.023 19.52C118.223 19.94 118.433 20.37 118.653 20.81C118.873 21.23 119.083 21.65 119.283 22.07H119.403C119.563 21.65 119.733 21.23 119.913 20.81C120.093 20.37 120.263 19.94 120.423 19.52L121.443 17.12H126.003L121.683 24.77L126.273 32H121.533L120.093 29.54C119.853 29.12 119.613 28.69 119.373 28.25C119.153 27.81 118.923 27.38 118.683 26.96H118.563C118.383 27.38 118.193 27.81 117.993 28.25C117.793 28.67 117.603 29.1 117.423 29.54L116.253 32H111.693ZM132.684 32.36C131.164 32.36 130.104 31.91 129.504 31.01C128.924 30.09 128.634 28.88 128.634 27.38V10.97H133.044V27.56C133.044 28.02 133.124 28.34 133.284 28.52C133.464 28.7 133.644 28.79 133.824 28.79C133.924 28.79 134.004 28.79 134.064 28.79C134.144 28.77 134.244 28.75 134.364 28.73L134.904 32C134.664 32.1 134.354 32.18 133.974 32.24C133.614 32.32 133.184 32.36 132.684 32.36ZM137.218 32V17.12H141.628V32H137.218ZM139.408 14.93C138.668 14.93 138.068 14.72 137.608 14.3C137.148 13.88 136.918 13.32 136.918 12.62C136.918 11.92 137.148 11.36 137.608 10.94C138.068 10.52 138.668 10.31 139.408 10.31C140.148 10.31 140.748 10.52 141.208 10.94C141.668 11.36 141.898 11.92 141.898 12.62C141.898 13.32 141.668 13.88 141.208 14.3C140.748 14.72 140.148 14.93 139.408 14.93ZM145.509 32V17.12H149.109L149.409 19.01H149.529C150.169 18.41 150.869 17.89 151.629 17.45C152.409 16.99 153.299 16.76 154.299 16.76C155.919 16.76 157.089 17.3 157.809 18.38C158.549 19.44 158.919 20.9 158.919 22.76V32H154.509V23.33C154.509 22.25 154.359 21.51 154.059 21.11C153.779 20.71 153.319 20.51 152.679 20.51C152.119 20.51 151.639 20.64 151.239 20.9C150.839 21.14 150.399 21.49 149.919 21.95V32H145.509ZM162.677 32V10.97H166.967V23.03H167.087L171.797 17.12H176.597L171.377 23.24L176.987 32H172.217L168.857 26.21L166.967 28.34V32H162.677Z" fill="white"/>
<path d="M79.456 58V53.626L75.928 46.228H78.16L79.438 49.234C79.606 49.678 79.774 50.11 79.942 50.53C80.11 50.938 80.29 51.37 80.482 51.826H80.554C80.746 51.37 80.932 50.938 81.112 50.53C81.292 50.11 81.466 49.678 81.634 49.234L82.912 46.228H85.09L81.544 53.626V58H79.456ZM89.0883 58.216C88.3563 58.216 87.6723 58.036 87.0363 57.676C86.4003 57.304 85.8843 56.776 85.4883 56.092C85.0923 55.396 84.8943 54.562 84.8943 53.59C84.8943 52.606 85.0923 51.772 85.4883 51.088C85.8843 50.392 86.4003 49.864 87.0363 49.504C87.6723 49.132 88.3563 48.946 89.0883 48.946C89.8323 48.946 90.5223 49.132 91.1583 49.504C91.7943 49.864 92.3103 50.392 92.7063 51.088C93.1023 51.772 93.3003 52.606 93.3003 53.59C93.3003 54.562 93.1023 55.396 92.7063 56.092C92.3103 56.776 91.7943 57.304 91.1583 57.676C90.5223 58.036 89.8323 58.216 89.0883 58.216ZM89.0883 56.524C89.7363 56.524 90.2463 56.254 90.6183 55.714C90.9903 55.174 91.1763 54.466 91.1763 53.59C91.1763 52.702 90.9903 51.988 90.6183 51.448C90.2463 50.908 89.7363 50.638 89.0883 50.638C88.4403 50.638 87.9303 50.908 87.5583 51.448C87.1983 51.988 87.0183 52.702 87.0183 53.59C87.0183 54.466 87.1983 55.174 87.5583 55.714C87.9303 56.254 88.4403 56.524 89.0883 56.524ZM97.9772 58.216C97.0292 58.216 96.3392 57.91 95.9072 57.298C95.4752 56.686 95.2592 55.822 95.2592 54.706V49.162H97.3292V54.436C97.3292 55.168 97.4372 55.684 97.6532 55.984C97.8692 56.284 98.2172 56.434 98.6972 56.434C99.0812 56.434 99.4172 56.338 99.7052 56.146C100.005 55.954 100.323 55.642 100.659 55.21V49.162H102.729V58H101.037L100.875 56.704H100.821C100.437 57.16 100.017 57.526 99.5612 57.802C99.1052 58.078 98.5772 58.216 97.9772 58.216ZM105.351 58V49.162H107.061L107.205 50.728H107.277C107.589 50.152 107.967 49.714 108.411 49.414C108.855 49.102 109.311 48.946 109.779 48.946C110.199 48.946 110.535 49.006 110.787 49.126L110.427 50.926C110.271 50.878 110.127 50.842 109.995 50.818C109.863 50.794 109.701 50.782 109.509 50.782C109.161 50.782 108.795 50.92 108.411 51.196C108.027 51.46 107.697 51.928 107.421 52.6V58H105.351ZM117.019 58L114.679 46.228H116.821L117.847 52.168C117.943 52.792 118.039 53.422 118.135 54.058C118.243 54.682 118.339 55.306 118.423 55.93H118.495C118.627 55.306 118.753 54.682 118.873 54.058C119.005 53.422 119.137 52.792 119.269 52.168L120.709 46.228H122.527L123.967 52.168C124.099 52.78 124.231 53.404 124.363 54.04C124.495 54.664 124.627 55.294 124.759 55.93H124.831C124.927 55.294 125.023 54.664 125.119 54.04C125.215 53.416 125.305 52.792 125.389 52.168L126.415 46.228H128.413L126.163 58H123.571L122.113 51.808C122.017 51.352 121.921 50.896 121.825 50.44C121.741 49.984 121.663 49.534 121.591 49.09H121.519C121.435 49.534 121.345 49.984 121.249 50.44C121.165 50.896 121.075 51.352 120.979 51.808L119.557 58H117.019ZM133.846 58.216C133.03 58.216 132.292 58.036 131.632 57.676C130.972 57.304 130.45 56.776 130.066 56.092C129.682 55.396 129.49 54.562 129.49 53.59C129.49 52.63 129.682 51.802 130.066 51.106C130.462 50.41 130.972 49.876 131.596 49.504C132.22 49.132 132.874 48.946 133.558 48.946C134.362 48.946 135.034 49.126 135.574 49.486C136.114 49.834 136.522 50.326 136.798 50.962C137.074 51.586 137.212 52.312 137.212 53.14C137.212 53.572 137.182 53.908 137.122 54.148H131.506C131.602 54.928 131.884 55.534 132.352 55.966C132.82 56.398 133.408 56.614 134.116 56.614C134.5 56.614 134.854 56.56 135.178 56.452C135.514 56.332 135.844 56.17 136.168 55.966L136.87 57.262C136.45 57.538 135.982 57.766 135.466 57.946C134.95 58.126 134.41 58.216 133.846 58.216ZM131.488 52.744H135.412C135.412 52.06 135.262 51.526 134.962 51.142C134.662 50.746 134.212 50.548 133.612 50.548C133.096 50.548 132.634 50.74 132.226 51.124C131.83 51.496 131.584 52.036 131.488 52.744ZM143.473 58.216C142.633 58.216 141.829 57.832 141.061 57.064H141.007L140.827 58H139.189V45.292H141.259V48.568L141.205 50.044C141.577 49.72 141.985 49.456 142.429 49.252C142.873 49.048 143.317 48.946 143.761 48.946C144.865 48.946 145.723 49.354 146.335 50.17C146.947 50.986 147.253 52.072 147.253 53.428C147.253 54.436 147.073 55.3 146.713 56.02C146.353 56.728 145.885 57.274 145.309 57.658C144.745 58.03 144.133 58.216 143.473 58.216ZM143.041 56.506C143.629 56.506 144.121 56.248 144.517 55.732C144.913 55.216 145.111 54.46 145.111 53.464C145.111 52.576 144.961 51.886 144.661 51.394C144.361 50.902 143.875 50.656 143.203 50.656C142.579 50.656 141.931 50.986 141.259 51.646V55.768C141.571 56.032 141.877 56.224 142.177 56.344C142.489 56.452 142.777 56.506 143.041 56.506ZM152.338 58.216C151.414 58.216 150.634 58.06 149.998 57.748C149.374 57.424 148.858 57.04 148.45 56.596L149.44 55.264C149.788 55.612 150.184 55.912 150.628 56.164C151.072 56.404 151.582 56.524 152.158 56.524C152.782 56.524 153.286 56.374 153.67 56.074C154.066 55.762 154.264 55.336 154.264 54.796C154.264 54.4 154.162 54.058 153.958 53.77C153.766 53.47 153.424 53.242 152.932 53.086C152.452 52.93 151.774 52.852 150.898 52.852V51.34C152.026 51.34 152.806 51.166 153.238 50.818C153.67 50.47 153.886 50.032 153.886 49.504C153.886 49.024 153.736 48.652 153.436 48.388C153.136 48.112 152.722 47.974 152.194 47.974C151.75 47.974 151.342 48.076 150.97 48.28C150.598 48.472 150.238 48.73 149.89 49.054L148.828 47.776C149.32 47.344 149.842 46.996 150.394 46.732C150.958 46.468 151.582 46.336 152.266 46.336C153.37 46.336 154.264 46.6 154.948 47.128C155.632 47.644 155.974 48.388 155.974 49.36C155.974 49.996 155.794 50.536 155.434 50.98C155.086 51.412 154.6 51.748 153.976 51.988V52.06C154.648 52.24 155.212 52.57 155.668 53.05C156.124 53.53 156.352 54.148 156.352 54.904C156.352 55.6 156.166 56.194 155.794 56.686C155.434 57.178 154.948 57.556 154.336 57.82C153.736 58.084 153.07 58.216 152.338 58.216ZM162.344 58V46.228H169.436V47.992H164.432V50.998H168.662V52.762H164.432V56.236H169.616V58H162.344ZM171.849 58V49.162H173.559L173.703 50.35H173.775C174.171 49.966 174.603 49.636 175.071 49.36C175.539 49.084 176.073 48.946 176.673 48.946C177.621 48.946 178.311 49.252 178.743 49.864C179.175 50.476 179.391 51.34 179.391 52.456V58H177.321V52.726C177.321 51.994 177.213 51.478 176.997 51.178C176.781 50.878 176.427 50.728 175.935 50.728C175.551 50.728 175.209 50.824 174.909 51.016C174.621 51.196 174.291 51.466 173.919 51.826V58H171.849ZM185.035 58.216C184.015 58.216 183.289 57.922 182.857 57.334C182.437 56.734 182.227 55.96 182.227 55.012V50.8H180.967V49.252L182.335 49.162L182.587 46.75H184.315V49.162H186.565V50.8H184.315V55.012C184.315 56.044 184.729 56.56 185.557 56.56C185.713 56.56 185.875 56.542 186.043 56.506C186.211 56.458 186.355 56.41 186.475 56.362L186.835 57.892C186.595 57.976 186.319 58.048 186.007 58.108C185.707 58.18 185.383 58.216 185.035 58.216ZM188.425 58V49.162H190.135L190.279 50.728H190.351C190.663 50.152 191.041 49.714 191.485 49.414C191.929 49.102 192.385 48.946 192.853 48.946C193.273 48.946 193.609 49.006 193.861 49.126L193.501 50.926C193.345 50.878 193.201 50.842 193.069 50.818C192.937 50.794 192.775 50.782 192.583 50.782C192.235 50.782 191.869 50.92 191.485 51.196C191.101 51.46 190.771 51.928 190.495 52.6V58H188.425ZM196.015 61.636C195.775 61.636 195.565 61.618 195.385 61.582C195.205 61.546 195.031 61.504 194.863 61.456L195.241 59.836C195.325 59.86 195.421 59.884 195.529 59.908C195.649 59.944 195.763 59.962 195.871 59.962C196.339 59.962 196.711 59.818 196.987 59.53C197.275 59.254 197.491 58.894 197.635 58.45L197.797 57.892L194.323 49.162H196.429L197.959 53.5C198.091 53.884 198.217 54.292 198.337 54.724C198.469 55.144 198.601 55.564 198.733 55.984H198.805C198.913 55.576 199.021 55.162 199.129 54.742C199.249 54.31 199.363 53.896 199.471 53.5L200.803 49.162H202.801L199.597 58.396C199.225 59.392 198.775 60.178 198.247 60.754C197.719 61.342 196.975 61.636 196.015 61.636ZM208.117 58V46.228H211.825C212.701 46.228 213.481 46.342 214.165 46.57C214.849 46.798 215.389 47.176 215.785 47.704C216.181 48.232 216.379 48.952 216.379 49.864C216.379 50.728 216.181 51.442 215.785 52.006C215.389 52.57 214.855 52.99 214.183 53.266C213.511 53.542 212.749 53.68 211.897 53.68H210.205V58H208.117ZM210.205 52.006H211.735C213.463 52.006 214.327 51.292 214.327 49.864C214.327 49.12 214.099 48.61 213.643 48.334C213.199 48.046 212.539 47.902 211.663 47.902H210.205V52.006ZM221.627 58.216C220.895 58.216 220.211 58.036 219.575 57.676C218.939 57.304 218.423 56.776 218.027 56.092C217.631 55.396 217.433 54.562 217.433 53.59C217.433 52.606 217.631 51.772 218.027 51.088C218.423 50.392 218.939 49.864 219.575 49.504C220.211 49.132 220.895 48.946 221.627 48.946C222.371 48.946 223.061 49.132 223.697 49.504C224.333 49.864 224.849 50.392 225.245 51.088C225.641 51.772 225.839 52.606 225.839 53.59C225.839 54.562 225.641 55.396 225.245 56.092C224.849 56.776 224.333 57.304 223.697 57.676C223.061 58.036 222.371 58.216 221.627 58.216ZM221.627 56.524C222.275 56.524 222.785 56.254 223.157 55.714C223.529 55.174 223.715 54.466 223.715 53.59C223.715 52.702 223.529 51.988 223.157 51.448C222.785 50.908 222.275 50.638 221.627 50.638C220.979 50.638 220.469 50.908 220.097 51.448C219.737 51.988 219.557 52.702 219.557 53.59C219.557 54.466 219.737 55.174 220.097 55.714C220.469 56.254 220.979 56.524 221.627 56.524ZM227.888 58V49.162H229.958V58H227.888ZM228.932 47.614C228.56 47.614 228.26 47.506 228.032 47.29C227.804 47.074 227.69 46.786 227.69 46.426C227.69 46.078 227.804 45.796 228.032 45.58C228.26 45.364 228.56 45.256 228.932 45.256C229.304 45.256 229.604 45.364 229.832 45.58C230.06 45.796 230.174 46.078 230.174 46.426C230.174 46.786 230.06 47.074 229.832 47.29C229.604 47.506 229.304 47.614 228.932 47.614ZM232.599 58V49.162H234.309L234.453 50.35H234.525C234.921 49.966 235.353 49.636 235.821 49.36C236.289 49.084 236.823 48.946 237.423 48.946C238.371 48.946 239.061 49.252 239.493 49.864C239.925 50.476 240.141 51.34 240.141 52.456V58H238.071V52.726C238.071 51.994 237.963 51.478 237.747 51.178C237.531 50.878 237.177 50.728 236.685 50.728C236.301 50.728 235.959 50.824 235.659 51.016C235.371 51.196 235.041 51.466 234.669 51.826V58H232.599ZM245.785 58.216C244.765 58.216 244.039 57.922 243.607 57.334C243.187 56.734 242.977 55.96 242.977 55.012V50.8H241.717V49.252L243.085 49.162L243.337 46.75H245.065V49.162H247.315V50.8H245.065V55.012C245.065 56.044 245.479 56.56 246.307 56.56C246.463 56.56 246.625 56.542 246.793 56.506C246.961 56.458 247.105 56.41 247.225 56.362L247.585 57.892C247.345 57.976 247.069 58.048 246.757 58.108C246.457 58.18 246.133 58.216 245.785 58.216Z" fill="white"/>
</svg>
