<svg width="24" height="25" viewBox="0 0 24 25" fill="none" xmlns="http://www.w3.org/2000/svg">
  <path
    fillRule="evenodd"
    clipRule="evenodd"
    d="M19 5.48902V6.50002C19.5304 6.50002 20.0391 6.71073 20.4142 7.0858C20.7893 7.46088 21 7.96958 21 8.50002V18.5C21 19.0304 20.7893 19.5392 20.4142 19.9142C20.0391 20.2893 19.5304 20.5 19 20.5H5C4.46957 20.5 3.96086 20.2893 3.58579 19.9142C3.21071 19.5392 3 19.0304 3 18.5V8.50002C3 7.45502 3.835 6.50702 4.813 6.22802L15.813 3.08502C16.1851 2.97867 16.5768 2.96016 16.9573 3.03094C17.3377 3.10172 17.6966 3.25986 18.0055 3.49291C18.3145 3.72596 18.5651 4.02755 18.7377 4.37393C18.9102 4.72031 19 5.10203 19 5.48902ZM15.5 12C15.1022 12 14.7206 12.1581 14.4393 12.4394C14.158 12.7207 14 13.1022 14 13.5C14 13.8978 14.158 14.2794 14.4393 14.5607C14.7206 14.842 15.1022 15 15.5 15C15.8978 15 16.2794 14.842 16.5607 14.5607C16.842 14.2794 17 13.8978 17 13.5C17 13.1022 16.842 12.7207 16.5607 12.4394C16.2794 12.1581 15.8978 12 15.5 12ZM17 5.48902C17.0001 5.41843 16.9852 5.34863 16.9563 5.28421C16.9274 5.21979 16.8853 5.16222 16.8326 5.11527C16.7798 5.06832 16.7178 5.03306 16.6505 5.01182C16.5832 4.99058 16.5121 4.98383 16.442 4.99202L16.362 5.00802L11.14 6.50002H17V5.48902Z"
    fill="black"
  />
</svg>