<svg width="40" height="40" viewBox="0 0 40 40" fill="none" xmlns="http://www.w3.org/2000/svg">
<circle cx="20" cy="20" r="20" fill="#E83B47" fill-opacity="0.133333"/>
<path fill-rule="evenodd" clip-rule="evenodd" d="M10 20C10 19.42 10 18.8842 10.0042 18.3892C10.0083 17.9342 10.01 17.7058 10.1567 17.5617C10.3025 17.4167 10.5325 17.4167 10.9933 17.4167H29.0067C29.4675 17.4167 29.6975 17.4167 29.8433 17.5617C29.99 17.7067 29.9917 17.9342 29.9958 18.3892C30 18.8842 30 19.42 30 20V20.25C30 24.0208 30 25.9067 28.8283 27.0783C27.6567 28.25 25.7708 28.25 22 28.25H18C14.2292 28.25 12.3433 28.25 11.1717 27.0783C10 25.9067 10 24.0208 10 20.25V20ZM29.7667 15.0875C29.8625 15.5625 29.9108 15.7992 29.7608 15.9833C29.6108 16.1667 29.3483 16.1667 28.8242 16.1667H11.1758C10.65 16.1667 10.3892 16.1667 10.2392 15.9833C10.0892 15.8 10.1375 15.5625 10.2333 15.0875C10.4 14.2692 10.6842 13.6583 11.1717 13.1708C12.3433 12 14.2292 12 18 12H22C25.7708 12 27.6567 12 28.8283 13.1717C29.3158 13.6583 29.6 14.2683 29.7667 15.0875ZM13.75 22C13.75 21.8342 13.8158 21.6753 13.9331 21.5581C14.0503 21.4408 14.2092 21.375 14.375 21.375H19.7917C19.9574 21.375 20.1164 21.4408 20.2336 21.5581C20.3508 21.6753 20.4167 21.8342 20.4167 22C20.4167 22.1658 20.3508 22.3247 20.2336 22.4419C20.1164 22.5592 19.9574 22.625 19.7917 22.625H14.375C14.2092 22.625 14.0503 22.5592 13.9331 22.4419C13.8158 22.3247 13.75 22.1658 13.75 22ZM13.75 24.5C13.75 24.3342 13.8158 24.1753 13.9331 24.0581C14.0503 23.9408 14.2092 23.875 14.375 23.875H16.4583C16.6241 23.875 16.7831 23.9408 16.9003 24.0581C17.0175 24.1753 17.0833 24.3342 17.0833 24.5C17.0833 24.6658 17.0175 24.8247 16.9003 24.9419C16.7831 25.0592 16.6241 25.125 16.4583 25.125H14.375C14.2092 25.125 14.0503 25.0592 13.9331 24.9419C13.8158 24.8247 13.75 24.6658 13.75 24.5Z" fill="#E83B47"/>
</svg>
