<svg width="40" height="40" viewBox="0 0 40 40" fill="none" xmlns="http://www.w3.org/2000/svg">
<circle cx="20" cy="20" r="20" fill="#076AE0"/>
<path fill-rule="evenodd" clip-rule="evenodd" d="M28.8272 14.4203C29.5933 12.3912 27.6086 10.4065 25.5795 11.1726L12.936 15.9464C10.2394 16.9646 10.3905 20.8292 13.1583 21.6338L16.6654 22.6533C16.9941 22.7488 17.251 23.0058 17.3465 23.3344L18.366 26.8415C19.1706 29.6093 23.0352 29.7604 24.0534 27.0638L28.8272 14.4203ZM24.9412 13.5514L13.6425 17.8175C12.7436 18.1569 12.794 19.4451 13.7166 19.7133L17.2237 20.7328C17.2637 20.7444 17.3034 20.7568 17.3426 20.7701L24.9412 13.5514ZM18.9291 22.0216C19.0742 22.2534 19.1887 22.5067 19.267 22.7761L20.2865 26.2832C20.5547 27.2058 21.8429 27.2562 22.1823 26.3573L26.5546 14.7773L18.9291 22.0216Z" fill="white"/>
</svg>