<svg width="18" height="18" viewBox="0 0 18 18" fill="none" xmlns="http://www.w3.org/2000/svg">
<g clip-path="url(#clip0_1042_11)">
<path d="M9 18C13.9706 18 18 13.9706 18 9C18 4.02944 13.9706 0 9 0C4.02944 0 0 4.02944 0 9C0 13.9706 4.02944 18 9 18Z" fill="#076AE0"/>
<path d="M6.47865 6.62808H12.1037C12.1694 6.62808 12.235 6.63222 12.3002 6.64056C12.2781 6.48552 12.2249 6.33648 12.1436 6.20256C12.0624 6.06864 11.9549 5.95253 11.8275 5.86127C11.7002 5.77001 11.5557 5.70548 11.4028 5.67156C11.2499 5.63765 11.0917 5.63505 10.9377 5.66393L6.31167 6.45372H6.30639C6.01605 6.50922 5.7578 6.67356 5.58447 6.91302C5.84561 6.72732 6.15819 6.62766 6.47865 6.62808Z" fill="white"/>
<path d="M12.1037 7.05005H6.47873C6.18041 7.05035 5.89447 7.16903 5.68357 7.37993C5.47265 7.59083 5.35402 7.87679 5.3537 8.17505V11.55C5.35402 11.8483 5.47265 12.1343 5.68357 12.3452C5.89447 12.5561 6.18041 12.6747 6.47873 12.675H12.1037C12.402 12.6747 12.6879 12.5561 12.8988 12.3452C13.1097 12.1343 13.2284 11.8483 13.2287 11.55V8.17505C13.2284 7.87679 13.1097 7.59083 12.8988 7.37993C12.6879 7.16903 12.402 7.05035 12.1037 7.05005ZM11.2687 10.425C11.1575 10.425 11.0487 10.392 10.9562 10.3302C10.8637 10.2684 10.7916 10.1806 10.749 10.0778C10.7065 9.97505 10.6953 9.86195 10.7171 9.75281C10.7387 9.64367 10.7923 9.54347 10.871 9.46481C10.9496 9.38615 11.0499 9.33257 11.159 9.31085C11.2681 9.28913 11.3812 9.30029 11.484 9.34289C11.5868 9.38543 11.6746 9.45755 11.7365 9.55007C11.7983 9.64253 11.8313 9.75131 11.8313 9.86255C11.8313 10.0117 11.772 10.1548 11.6665 10.2603C11.561 10.3658 11.4179 10.425 11.2687 10.425Z" fill="white"/>
<path d="M5.36249 9.36153V7.61253C5.36249 7.23159 5.57342 6.59301 6.30557 6.45465C6.92693 6.33813 7.54217 6.33813 7.54217 6.33813C7.54217 6.33813 7.94645 6.61935 7.61249 6.61935C7.27853 6.61935 7.28729 7.05003 7.61249 7.05003C7.93769 7.05003 7.61249 7.46313 7.61249 7.46313L6.30293 8.94849L5.36249 9.36153Z" fill="white"/>
</g>
<defs>
<clipPath id="clip0_1042_11">
<rect width="18" height="18" fill="white"/>
</clipPath>
</defs>
</svg>
