<svg width="32" height="32" viewBox="0 0 32 32" fill="none" xmlns="http://www.w3.org/2000/svg">
<circle cx="16" cy="16" r="16" fill="#076AE0"/>
<path d="M13.2846 8.02101C12.2304 8.16406 11.3788 8.87454 11.1102 9.83773C11.0696 9.98078 11.0341 10.2621 11.0341 10.4671C11.0341 11.1681 11.3028 11.7498 11.8451 12.2362C12.6916 12.9848 13.7966 13.1374 14.8357 12.6463C15.0029 12.57 15.1499 12.5032 15.1651 12.5032C15.1854 12.5032 17.9681 15.7552 18.0442 15.8696C18.0594 15.8982 17.9833 16.0365 17.8668 16.1796C17.3802 16.7804 17.1267 17.5814 17.1876 18.3253C17.218 18.6972 17.2129 18.7497 17.1318 18.7878C17.0811 18.8117 16.113 19.1502 14.9776 19.5364L12.9146 20.2422L12.5598 19.8845C12.0023 19.3219 11.4244 19.0835 10.6286 19.0835C9.70614 19.0835 8.93569 19.4697 8.42882 20.1897C7.44043 21.5916 8.24128 23.4941 10.0052 23.9233C11.612 24.3191 13.2289 23.1317 13.239 21.5534V21.1386L15.3679 20.409C16.5388 20.0085 17.512 19.6795 17.5373 19.6795C17.5576 19.6795 17.7046 19.8416 17.8668 20.0371C18.5561 20.8763 19.504 21.3246 20.5937 21.3246C21.1665 21.3246 21.5973 21.2292 22.1194 20.986C23.2143 20.4758 23.934 19.4363 23.9948 18.2729C24.0252 17.672 23.9239 17.2286 23.6248 16.6516C23.3156 16.0651 22.8088 15.5788 22.2056 15.2831C21.6024 14.9875 21.2932 14.916 20.614 14.916C19.9906 14.9112 19.6712 14.978 19.1542 15.2068C18.9261 15.307 18.8704 15.3165 18.8197 15.2641C18.546 14.9827 15.9001 11.8261 15.9001 11.7784C15.9001 11.7498 15.9457 11.6306 16.0065 11.5162C16.559 10.4481 16.1586 9.07957 15.1094 8.42632C14.5822 8.0973 13.8828 7.93995 13.2846 8.02101ZM11.318 20.1611C11.6272 20.2994 11.9617 20.6236 12.1138 20.9336C12.1949 21.1005 12.2253 21.253 12.2253 21.5153C12.2253 21.8252 12.205 21.9158 12.058 22.1972C11.7539 22.7789 11.2014 23.0745 10.507 23.0316C9.91396 22.9935 9.4375 22.6931 9.17392 22.1924C9.05228 21.9587 9.032 21.8634 9.032 21.5153C9.032 21.1672 9.05228 21.0766 9.17392 20.862C9.5997 20.0943 10.507 19.7987 11.318 20.1611Z" fill="white"/>
</svg>
