<svg width="52" height="45" viewBox="0 0 52 45" fill="none" xmlns="http://www.w3.org/2000/svg">
<circle cx="22.5" cy="22.5" r="22.5" fill="#076AE0"/>
<path d="M19.504 11.0298C18.007 11.233 16.7978 12.2418 16.4164 13.6095C16.3588 13.8127 16.3084 14.2121 16.3084 14.5033C16.3084 15.4986 16.6899 16.3246 17.46 17.0153C18.6619 18.0783 20.231 18.2949 21.7065 17.5975C21.944 17.4892 22.1527 17.3944 22.1743 17.3944C22.2031 17.3944 26.1545 22.0121 26.2624 22.1746C26.284 22.2153 26.176 22.4116 26.0105 22.6147C25.3196 23.4679 24.9597 24.6054 25.0461 25.6616C25.0892 26.1897 25.082 26.2642 24.9669 26.3184C24.8949 26.3522 23.5202 26.833 21.908 27.3814L18.9786 28.3835L18.4748 27.8757C17.6831 27.0767 16.8626 26.7382 15.7326 26.7382C14.4227 26.7382 13.3287 27.2866 12.6089 28.309C11.2054 30.2996 12.3426 33.0012 14.8473 33.6106C17.1289 34.1726 19.4249 32.4866 19.4393 30.2455V29.6564L22.4622 28.6205C24.1248 28.0517 25.5067 27.5845 25.5427 27.5845C25.5715 27.5845 25.7802 27.8147 26.0105 28.0924C26.9894 29.284 28.3353 29.9205 29.8827 29.9205C30.696 29.9205 31.3078 29.7851 32.0491 29.4397C33.6038 28.7153 34.6258 27.2392 34.7122 25.5871C34.7554 24.734 34.6114 24.1043 34.1868 23.2851C33.7477 22.4522 33.028 21.7616 32.1715 21.3418C31.315 20.922 30.876 20.8205 29.9115 20.8205C29.0262 20.8137 28.5728 20.9085 27.8387 21.2335C27.5148 21.3757 27.4356 21.3892 27.3636 21.3147C26.975 20.9153 23.2179 16.433 23.2179 16.3653C23.2179 16.3246 23.2827 16.1554 23.3691 15.9929C24.1536 14.4762 23.585 12.533 22.0951 11.6054C21.3466 11.1382 20.3533 10.9147 19.504 11.0298ZM16.7114 28.2684C17.1505 28.4647 17.6255 28.9252 17.8414 29.3653C17.9566 29.6022 17.9998 29.8189 17.9998 30.1913C17.9998 30.6314 17.971 30.7601 17.7623 31.1595C17.3304 31.9856 16.5459 32.4054 15.5599 32.3444C14.7178 32.2903 14.0412 31.8637 13.6669 31.1528C13.4942 30.821 13.4654 30.6856 13.4654 30.1913C13.4654 29.697 13.4942 29.5684 13.6669 29.2637C14.2715 28.1736 15.5599 27.7538 16.7114 28.2684Z" fill="white"/>
<rect x="21" y="33" width="31" height="12" rx="6" fill="white" fill-opacity="0.95"/>
<path d="M25.4785 42H28.6997C30.0576 42 30.9365 41.2749 30.9365 40.1719V40.1631C30.9365 39.3369 30.2158 38.7041 29.3633 38.6821V38.647C30.1016 38.5547 30.6685 38.001 30.6685 37.2671V37.2583C30.6685 36.2563 29.9038 35.6587 28.5942 35.6587H25.4785V42ZM28.0889 36.9331C28.5635 36.9331 28.8579 37.1704 28.8579 37.5527V37.5615C28.8579 37.9746 28.5679 38.2251 28.0098 38.2251H27.3418V36.9331H28.0889ZM28.0977 39.3457C28.7129 39.3457 29.0381 39.5918 29.0381 40.0269V40.0356C29.0381 40.4795 28.7085 40.7256 28.1372 40.7256H27.3418V39.3457H28.0977ZM31.5518 42H36.0254V40.5234H33.415V39.5171H35.8628V38.146H33.415V37.1353H36.0254V35.6587H31.5518V42ZM38.3237 42H40.187V37.1353H41.8569V35.6587H36.6538V37.1353H38.3237V42ZM41.3516 42H43.3115L43.6411 40.7388H45.5396L45.8691 42H47.8291L45.7593 35.6587H43.4214L41.3516 42ZM44.5728 37.1704H44.6079L45.1968 39.4248H43.9839L44.5728 37.1704Z" fill="#076AE0"/>
</svg>