<svg width="840" height="200" viewBox="0 0 840 200" fill="none" xmlns="http://www.w3.org/2000/svg">
<path d="M238.24 100V21.76H255.88V51.88H282.88V21.76H300.64V100H282.88V67.36H255.88V100H238.24ZM344.299 101.44C338.619 101.44 333.499 100.2 328.939 97.72C324.379 95.24 320.779 91.68 318.139 87.04C315.499 82.4 314.179 76.8 314.179 70.24C314.179 63.76 315.499 58.2 318.139 53.56C320.859 48.92 324.379 45.36 328.699 42.88C333.019 40.32 337.539 39.04 342.259 39.04C347.939 39.04 352.619 40.32 356.299 42.88C360.059 45.36 362.859 48.76 364.699 53.08C366.619 57.32 367.579 62.16 367.579 67.6C367.579 69.12 367.499 70.64 367.339 72.16C367.179 73.6 367.019 74.68 366.859 75.4H331.219C332.019 79.72 333.819 82.92 336.619 85C339.419 87 342.779 88 346.699 88C350.939 88 355.219 86.68 359.539 84.04L365.419 94.72C362.379 96.8 358.979 98.44 355.219 99.64C351.459 100.84 347.819 101.44 344.299 101.44ZM331.099 63.76H352.579C352.579 60.48 351.779 57.8 350.179 55.72C348.659 53.56 346.139 52.48 342.619 52.48C339.899 52.48 337.459 53.44 335.299 55.36C333.139 57.2 331.739 60 331.099 63.76ZM371.774 100L390.014 69.04L372.854 40.48H391.814L397.094 50.08C397.894 51.76 398.734 53.48 399.614 55.24C400.494 56.92 401.334 58.6 402.134 60.28H402.614C403.254 58.6 403.934 56.92 404.654 55.24C405.374 53.48 406.054 51.76 406.694 50.08L410.774 40.48H429.014L411.734 71.08L430.094 100H411.134L405.374 90.16C404.414 88.48 403.454 86.76 402.494 85C401.614 83.24 400.694 81.52 399.734 79.84H399.254C398.534 81.52 397.774 83.24 396.974 85C396.174 86.68 395.414 88.4 394.694 90.16L390.014 100H371.774ZM455.734 101.44C449.654 101.44 445.414 99.64 443.014 96.04C440.694 92.36 439.534 87.52 439.534 81.52V15.88H457.174V82.24C457.174 84.08 457.494 85.36 458.134 86.08C458.854 86.8 459.574 87.16 460.294 87.16C460.694 87.16 461.014 87.16 461.254 87.16C461.574 87.08 461.974 87 462.454 86.92L464.614 100C463.654 100.4 462.414 100.72 460.894 100.96C459.454 101.28 457.734 101.44 455.734 101.44ZM473.87 100V40.48H491.51V100H473.87ZM482.63 31.72C479.67 31.72 477.27 30.88 475.43 29.2C473.59 27.52 472.67 25.28 472.67 22.48C472.67 19.68 473.59 17.44 475.43 15.76C477.27 14.08 479.67 13.24 482.63 13.24C485.59 13.24 487.99 14.08 489.83 15.76C491.67 17.44 492.59 19.68 492.59 22.48C492.59 25.28 491.67 27.52 489.83 29.2C487.99 30.88 485.59 31.72 482.63 31.72ZM507.034 100V40.48H521.434L522.634 48.04H523.114C525.674 45.64 528.474 43.56 531.514 41.8C534.634 39.96 538.194 39.04 542.194 39.04C548.674 39.04 553.354 41.2 556.234 45.52C559.194 49.76 560.674 55.6 560.674 63.04V100H543.034V65.32C543.034 61 542.434 58.04 541.234 56.44C540.114 54.84 538.274 54.04 535.714 54.04C533.474 54.04 531.554 54.56 529.954 55.6C528.354 56.56 526.594 57.96 524.674 59.8V100H507.034ZM575.706 100V15.88H592.866V64.12H593.346L612.186 40.48H631.386L610.506 64.96L632.946 100H613.866L600.426 76.84L592.866 85.36V100H575.706Z" fill="black"/>
<path d="M253.768 184.864C249.832 184.864 246.256 183.928 243.04 182.056C239.824 180.184 237.256 177.448 235.336 173.848C233.464 170.2 232.528 165.784 232.528 160.6C232.528 155.464 233.488 151.072 235.408 147.424C237.376 143.728 239.992 140.92 243.256 139C246.52 137.032 250.12 136.048 254.056 136.048C257.032 136.048 259.672 136.648 261.976 137.848C264.28 139.048 266.176 140.44 267.664 142.024L263.2 147.424C262 146.176 260.656 145.192 259.168 144.472C257.728 143.704 256.096 143.32 254.272 143.32C251.728 143.32 249.448 144.016 247.432 145.408C245.464 146.752 243.904 148.696 242.752 151.24C241.648 153.784 241.096 156.832 241.096 160.384C241.096 165.76 242.272 169.984 244.624 173.056C246.976 176.08 250.12 177.592 254.056 177.592C256.168 177.592 258.04 177.16 259.672 176.296C261.304 175.384 262.792 174.208 264.136 172.768L268.6 178.024C266.68 180.232 264.472 181.936 261.976 183.136C259.528 184.288 256.792 184.864 253.768 184.864ZM275.74 184V148.648H282.58L283.156 154.912H283.444C284.692 152.608 286.204 150.856 287.98 149.656C289.756 148.408 291.58 147.784 293.452 147.784C295.132 147.784 296.476 148.024 297.484 148.504L296.044 155.704C295.42 155.512 294.844 155.368 294.316 155.272C293.788 155.176 293.14 155.128 292.372 155.128C290.98 155.128 289.516 155.68 287.98 156.784C286.444 157.84 285.124 159.712 284.02 162.4V184H275.74ZM306.101 198.544C305.141 198.544 304.301 198.472 303.581 198.328C302.861 198.184 302.165 198.016 301.493 197.824L303.005 191.344C303.341 191.44 303.725 191.536 304.157 191.632C304.637 191.776 305.093 191.848 305.525 191.848C307.397 191.848 308.885 191.272 309.989 190.12C311.141 189.016 312.005 187.576 312.581 185.8L313.229 183.568L299.333 148.648H307.757L313.877 166C314.405 167.536 314.909 169.168 315.389 170.896C315.917 172.576 316.445 174.256 316.973 175.936H317.261C317.693 174.304 318.125 172.648 318.557 170.968C319.037 169.24 319.493 167.584 319.925 166L325.253 148.648H333.245L320.429 185.584C318.941 189.568 317.141 192.712 315.029 195.016C312.917 197.368 309.941 198.544 306.101 198.544ZM339.373 197.968V148.648H346.213L346.789 152.392H347.077C348.565 151.144 350.221 150.064 352.045 149.152C353.917 148.24 355.813 147.784 357.733 147.784C362.149 147.784 365.557 149.416 367.957 152.68C370.405 155.944 371.629 160.312 371.629 165.784C371.629 169.816 370.909 173.272 369.469 176.152C368.029 178.984 366.157 181.144 363.853 182.632C361.597 184.12 359.149 184.864 356.509 184.864C354.973 184.864 353.437 184.528 351.901 183.856C350.365 183.136 348.877 182.176 347.437 180.976L347.653 186.88V197.968H339.373ZM354.781 178.024C357.133 178.024 359.101 176.992 360.685 174.928C362.269 172.864 363.061 169.84 363.061 165.856C363.061 162.304 362.461 159.544 361.261 157.576C360.061 155.608 358.117 154.624 355.429 154.624C352.933 154.624 350.341 155.944 347.653 158.584V175.072C348.949 176.128 350.197 176.896 351.397 177.376C352.597 177.808 353.725 178.024 354.781 178.024ZM390.853 184.864C386.773 184.864 383.869 183.688 382.141 181.336C380.461 178.936 379.621 175.84 379.621 172.048V155.2H374.581V149.008L380.053 148.648L381.061 139H387.973V148.648H396.973V155.2H387.973V172.048C387.973 176.176 389.629 178.24 392.941 178.24C393.565 178.24 394.213 178.168 394.885 178.024C395.557 177.832 396.133 177.64 396.613 177.448L398.053 183.568C397.093 183.904 395.989 184.192 394.741 184.432C393.541 184.72 392.245 184.864 390.853 184.864ZM417.759 184.864C414.831 184.864 412.095 184.144 409.551 182.704C407.007 181.216 404.943 179.104 403.359 176.368C401.775 173.584 400.983 170.248 400.983 166.36C400.983 162.424 401.775 159.088 403.359 156.352C404.943 153.568 407.007 151.456 409.551 150.016C412.095 148.528 414.831 147.784 417.759 147.784C420.735 147.784 423.495 148.528 426.039 150.016C428.583 151.456 430.647 153.568 432.231 156.352C433.815 159.088 434.607 162.424 434.607 166.36C434.607 170.248 433.815 173.584 432.231 176.368C430.647 179.104 428.583 181.216 426.039 182.704C423.495 184.144 420.735 184.864 417.759 184.864ZM417.759 178.096C420.351 178.096 422.391 177.016 423.879 174.856C425.367 172.696 426.111 169.864 426.111 166.36C426.111 162.808 425.367 159.952 423.879 157.792C422.391 155.632 420.351 154.552 417.759 154.552C415.167 154.552 413.127 155.632 411.639 157.792C410.199 159.952 409.479 162.808 409.479 166.36C409.479 169.864 410.199 172.696 411.639 174.856C413.127 177.016 415.167 178.096 417.759 178.096ZM458.657 184V155.2H453.905V149.008L458.657 148.648V144.976C458.657 141.28 459.569 138.256 461.393 135.904C463.217 133.504 466.217 132.304 470.393 132.304C471.641 132.304 472.841 132.424 473.993 132.664C475.145 132.904 476.105 133.192 476.873 133.528L475.289 139.72C473.993 139.144 472.697 138.856 471.401 138.856C468.425 138.856 466.937 140.848 466.937 144.832V148.648H473.849V155.2H466.937V184H458.657ZM493.837 184.864C490.909 184.864 488.173 184.144 485.629 182.704C483.085 181.216 481.021 179.104 479.437 176.368C477.853 173.584 477.061 170.248 477.061 166.36C477.061 162.424 477.853 159.088 479.437 156.352C481.021 153.568 483.085 151.456 485.629 150.016C488.173 148.528 490.909 147.784 493.837 147.784C496.813 147.784 499.573 148.528 502.117 150.016C504.661 151.456 506.725 153.568 508.309 156.352C509.893 159.088 510.685 162.424 510.685 166.36C510.685 170.248 509.893 173.584 508.309 176.368C506.725 179.104 504.661 181.216 502.117 182.704C499.573 184.144 496.813 184.864 493.837 184.864ZM493.837 178.096C496.429 178.096 498.469 177.016 499.957 174.856C501.445 172.696 502.189 169.864 502.189 166.36C502.189 162.808 501.445 159.952 499.957 157.792C498.469 155.632 496.429 154.552 493.837 154.552C491.245 154.552 489.205 155.632 487.717 157.792C486.277 159.952 485.557 162.808 485.557 166.36C485.557 169.864 486.277 172.696 487.717 174.856C489.205 177.016 491.245 178.096 493.837 178.096ZM518.881 184V148.648H525.721L526.297 154.912H526.585C527.833 152.608 529.345 150.856 531.121 149.656C532.897 148.408 534.721 147.784 536.593 147.784C538.273 147.784 539.617 148.024 540.625 148.504L539.185 155.704C538.561 155.512 537.985 155.368 537.457 155.272C536.929 155.176 536.281 155.128 535.513 155.128C534.121 155.128 532.657 155.68 531.121 156.784C529.585 157.84 528.265 159.712 527.161 162.4V184H518.881ZM575.274 184.864C572.01 184.864 569.058 184.144 566.418 182.704C563.778 181.216 561.69 179.104 560.154 176.368C558.618 173.584 557.85 170.248 557.85 166.36C557.85 162.52 558.618 159.208 560.154 156.424C561.738 153.64 563.778 151.504 566.274 150.016C568.77 148.528 571.386 147.784 574.122 147.784C577.338 147.784 580.026 148.504 582.186 149.944C584.346 151.336 585.978 153.304 587.082 155.848C588.186 158.344 588.738 161.248 588.738 164.56C588.738 166.288 588.618 167.632 588.378 168.592H565.914C566.298 171.712 567.426 174.136 569.298 175.864C571.17 177.592 573.522 178.456 576.354 178.456C577.89 178.456 579.306 178.24 580.602 177.808C581.946 177.328 583.266 176.68 584.562 175.864L587.37 181.048C585.69 182.152 583.818 183.064 581.754 183.784C579.69 184.504 577.53 184.864 575.274 184.864ZM565.842 162.976H581.538C581.538 160.24 580.938 158.104 579.738 156.568C578.538 154.984 576.738 154.192 574.338 154.192C572.274 154.192 570.426 154.96 568.794 156.496C567.21 157.984 566.226 160.144 565.842 162.976ZM604.567 184L592.255 148.648H600.679L606.295 167.008C606.775 168.736 607.255 170.488 607.735 172.264C608.263 174.04 608.767 175.84 609.247 177.664H609.535C610.063 175.84 610.567 174.04 611.047 172.264C611.575 170.488 612.079 168.736 612.559 167.008L618.175 148.648H626.167L614.143 184H604.567ZM646.993 184.864C643.729 184.864 640.777 184.144 638.137 182.704C635.497 181.216 633.409 179.104 631.873 176.368C630.337 173.584 629.569 170.248 629.569 166.36C629.569 162.52 630.337 159.208 631.873 156.424C633.457 153.64 635.497 151.504 637.993 150.016C640.489 148.528 643.105 147.784 645.841 147.784C649.057 147.784 651.745 148.504 653.905 149.944C656.065 151.336 657.697 153.304 658.801 155.848C659.905 158.344 660.457 161.248 660.457 164.56C660.457 166.288 660.337 167.632 660.097 168.592H637.633C638.017 171.712 639.145 174.136 641.017 175.864C642.889 177.592 645.241 178.456 648.073 178.456C649.609 178.456 651.025 178.24 652.321 177.808C653.665 177.328 654.985 176.68 656.281 175.864L659.089 181.048C657.409 182.152 655.537 183.064 653.473 183.784C651.409 184.504 649.249 184.864 646.993 184.864ZM637.561 162.976H653.257C653.257 160.24 652.657 158.104 651.457 156.568C650.257 154.984 648.457 154.192 646.057 154.192C643.993 154.192 642.145 154.96 640.513 156.496C638.929 157.984 637.945 160.144 637.561 162.976ZM668.365 184V148.648H675.205L675.781 154.912H676.069C677.317 152.608 678.829 150.856 680.605 149.656C682.381 148.408 684.205 147.784 686.077 147.784C687.757 147.784 689.101 148.024 690.109 148.504L688.669 155.704C688.045 155.512 687.469 155.368 686.941 155.272C686.413 155.176 685.765 155.128 684.997 155.128C683.605 155.128 682.141 155.68 680.605 156.784C679.069 157.84 677.749 159.712 676.645 162.4V184H668.365ZM698.726 198.544C697.766 198.544 696.926 198.472 696.206 198.328C695.486 198.184 694.79 198.016 694.118 197.824L695.63 191.344C695.966 191.44 696.35 191.536 696.782 191.632C697.262 191.776 697.718 191.848 698.15 191.848C700.022 191.848 701.51 191.272 702.614 190.12C703.766 189.016 704.63 187.576 705.206 185.8L705.854 183.568L691.958 148.648H700.382L706.502 166C707.03 167.536 707.534 169.168 708.014 170.896C708.542 172.576 709.07 174.256 709.598 175.936H709.886C710.318 174.304 710.75 172.648 711.182 170.968C711.662 169.24 712.118 167.584 712.55 166L717.878 148.648H725.87L713.054 185.584C711.566 189.568 709.766 192.712 707.654 195.016C705.542 197.368 702.566 198.544 698.726 198.544ZM746.048 184.864C743.12 184.864 740.384 184.144 737.84 182.704C735.296 181.216 733.232 179.104 731.648 176.368C730.064 173.584 729.272 170.248 729.272 166.36C729.272 162.424 730.064 159.088 731.648 156.352C733.232 153.568 735.296 151.456 737.84 150.016C740.384 148.528 743.12 147.784 746.048 147.784C749.024 147.784 751.784 148.528 754.328 150.016C756.872 151.456 758.936 153.568 760.52 156.352C762.104 159.088 762.896 162.424 762.896 166.36C762.896 170.248 762.104 173.584 760.52 176.368C758.936 179.104 756.872 181.216 754.328 182.704C751.784 184.144 749.024 184.864 746.048 184.864ZM746.048 178.096C748.64 178.096 750.68 177.016 752.168 174.856C753.656 172.696 754.4 169.864 754.4 166.36C754.4 162.808 753.656 159.952 752.168 157.792C750.68 155.632 748.64 154.552 746.048 154.552C743.456 154.552 741.416 155.632 739.928 157.792C738.488 159.952 737.768 162.808 737.768 166.36C737.768 169.864 738.488 172.696 739.928 174.856C741.416 177.016 743.456 178.096 746.048 178.096ZM771.092 184V148.648H777.932L778.508 153.4H778.796C780.38 151.864 782.108 150.544 783.98 149.44C785.852 148.336 787.988 147.784 790.388 147.784C794.18 147.784 796.94 149.008 798.668 151.456C800.396 153.904 801.26 157.36 801.26 161.824V184H792.98V162.904C792.98 159.976 792.548 157.912 791.684 156.712C790.82 155.512 789.404 154.912 787.436 154.912C785.9 154.912 784.532 155.296 783.332 156.064C782.18 156.784 780.86 157.864 779.372 159.304V184H771.092ZM826.501 184.864C823.237 184.864 820.285 184.144 817.645 182.704C815.005 181.216 812.917 179.104 811.381 176.368C809.845 173.584 809.077 170.248 809.077 166.36C809.077 162.52 809.845 159.208 811.381 156.424C812.965 153.64 815.005 151.504 817.501 150.016C819.997 148.528 822.613 147.784 825.349 147.784C828.565 147.784 831.253 148.504 833.413 149.944C835.573 151.336 837.205 153.304 838.309 155.848C839.413 158.344 839.965 161.248 839.965 164.56C839.965 166.288 839.845 167.632 839.605 168.592H817.141C817.525 171.712 818.653 174.136 820.525 175.864C822.397 177.592 824.749 178.456 827.581 178.456C829.117 178.456 830.533 178.24 831.829 177.808C833.173 177.328 834.493 176.68 835.789 175.864L838.597 181.048C836.917 182.152 835.045 183.064 832.981 183.784C830.917 184.504 828.757 184.864 826.501 184.864ZM817.069 162.976H832.765C832.765 160.24 832.165 158.104 830.965 156.568C829.765 154.984 827.965 154.192 825.565 154.192C823.501 154.192 821.653 154.96 820.021 156.496C818.437 157.984 817.453 160.144 817.069 162.976Z" fill="black"/>
<path d="M66.0581 0.262636C52.8795 2.05075 42.2352 10.9317 38.8771 22.9717C38.3703 24.7598 37.9268 28.2764 37.9268 30.8393C37.9268 39.6011 41.2848 46.8727 48.0642 52.9523C58.6451 62.3101 72.4573 64.2174 85.4459 58.0782C87.5368 57.1246 89.3742 56.2901 89.5642 56.2901C89.8177 56.2901 124.602 96.9399 125.552 98.3704C125.742 98.728 124.792 100.457 123.335 102.245C117.252 109.755 114.084 119.768 114.844 129.066C115.225 133.715 115.161 134.371 114.147 134.848C113.514 135.146 101.412 139.378 87.22 144.206L61.4329 153.027L56.9978 148.557C50.0283 141.523 42.8054 138.543 32.8581 138.543C21.3267 138.543 11.6962 143.371 5.3603 152.371C-6.99468 169.895 3.01602 193.677 25.0649 199.041C45.1497 203.988 65.3612 189.147 65.4879 169.418V164.232L92.0986 155.113C106.734 150.106 118.899 145.994 119.216 145.994C119.47 145.994 121.307 148.02 123.335 150.464C131.951 160.954 143.799 166.557 157.422 166.557C164.581 166.557 169.967 165.365 176.493 162.325C190.178 155.948 199.175 142.954 199.935 128.411C200.316 120.901 199.048 115.357 195.31 108.145C191.445 100.814 185.109 94.7345 177.57 91.0391C170.03 87.3437 166.165 86.4496 157.675 86.4496C149.882 86.39 145.89 87.2245 139.428 90.0854C136.577 91.3371 135.88 91.4563 135.246 90.8007C131.825 87.2841 98.7513 47.8264 98.7513 47.2304C98.7513 46.8727 99.3215 45.3827 100.082 43.9522C106.988 30.6009 101.983 13.4947 88.8673 5.32895C82.278 1.21629 73.5344 -0.750628 66.0581 0.262636ZM41.4749 152.014C45.3398 153.742 49.5214 157.795 51.4222 161.67C52.4359 163.756 52.8161 165.663 52.8161 168.941C52.8161 172.815 52.5627 173.948 50.7253 177.464C46.9237 184.736 40.0176 188.432 31.3374 187.895C23.9245 187.418 17.9687 183.663 14.6741 177.405C13.1534 174.484 12.9 173.292 12.9 168.941C12.9 164.59 13.1534 163.458 14.6741 160.775C19.9962 151.179 31.3374 147.484 41.4749 152.014Z" fill="#076AE0"/>
<rect x="646" y="18" width="194" height="82" rx="25" fill="#076AE0" fill-opacity="0.2"/>
<path d="M682.575 79H696.137C698.912 79 701.311 78.5435 703.334 77.6304C705.358 76.7173 706.924 75.4282 708.034 73.7632C709.144 72.0981 709.699 70.1466 709.699 67.9087V67.855C709.699 66.1541 709.278 64.6323 708.437 63.2896C707.596 61.9289 706.459 60.8457 705.026 60.04C703.594 59.2165 701.992 58.7599 700.219 58.6704V58.4824C701.687 58.2855 703.003 57.8021 704.167 57.0322C705.349 56.2445 706.28 55.2508 706.96 54.0513C707.64 52.8517 707.98 51.5179 707.98 50.0498V49.9961C707.98 47.973 707.488 46.2363 706.503 44.7861C705.519 43.3359 704.104 42.217 702.26 41.4292C700.434 40.6414 698.241 40.2476 695.681 40.2476H682.575V47.2031H693.049C694.696 47.2031 695.994 47.5881 696.943 48.3579C697.892 49.1099 698.366 50.1572 698.366 51.5V51.5537C698.366 53.0039 697.847 54.1408 696.809 54.9644C695.788 55.77 694.293 56.1729 692.324 56.1729H682.575V62.4033H693.049C694.499 62.4033 695.708 62.5824 696.674 62.9404C697.659 63.2985 698.393 63.8356 698.876 64.5518C699.378 65.2679 699.628 66.1362 699.628 67.1567V67.2104C699.628 68.7681 699.082 69.9676 697.99 70.8091C696.916 71.6326 695.367 72.0444 693.344 72.0444H682.575V79ZM677.634 79H687.49V40.2476H677.634V79ZM713.835 79H740.395V71.0776H723.691V63.2358H739.401V55.8237H723.691V48.1699H740.395V40.2476H713.835V79ZM754.951 79H764.807V48.1699H775.468V40.2476H744.262V48.1699H754.951V79ZM772.326 79H782.692L791.313 48.6802H794.455V40.2476H785.378L772.326 79ZM779.953 70.5137H802.888L800.686 63.397H782.155L779.953 70.5137ZM800.148 79H810.515L797.463 40.2476H791.501V48.6802L800.148 79Z" fill="#076AE0"/>
</svg>
