<svg width="52" height="45" viewBox="0 0 52 45" fill="none" xmlns="http://www.w3.org/2000/svg">
<circle cx="22.5" cy="22.5" r="22.5" fill="#076AE0"/>
<path d="M19.6211 12.1465C18.124 12.3497 16.9149 13.3585 16.5334 14.7262C16.4758 14.9293 16.4255 15.3288 16.4255 15.62C16.4255 16.6153 16.8069 17.4413 17.577 18.132C18.779 19.195 20.348 19.4116 21.8235 18.7142C22.061 18.6059 22.2698 18.5111 22.2913 18.5111C22.3201 18.5111 26.2715 23.1288 26.3795 23.2913C26.4011 23.332 26.2931 23.5283 26.1276 23.7314C25.4366 24.5846 25.0767 25.7221 25.1631 26.7783C25.2063 27.3064 25.1991 27.3809 25.0839 27.4351C25.012 27.4689 23.6373 27.9497 22.025 28.4981L19.0957 29.5002L18.5919 28.9924C17.8002 28.1934 16.9797 27.8549 15.8497 27.8549C14.5397 27.8549 13.4457 28.4033 12.726 29.4257C11.3225 31.4163 12.4597 34.1179 14.9644 34.7273C17.246 35.2893 19.5419 33.6033 19.5563 31.3622V30.7731L22.5792 29.7372C24.2418 29.1684 25.6238 28.7012 25.6597 28.7012C25.6885 28.7012 25.8973 28.9314 26.1276 29.2091C27.1064 30.4007 28.4523 31.0372 29.9998 31.0372C30.8131 31.0372 31.4249 30.9018 32.1662 30.5564C33.7208 29.832 34.7429 28.3559 34.8292 26.7038C34.8724 25.8507 34.7285 25.221 34.3038 24.4018C33.8648 23.5689 33.1451 22.8783 32.2886 22.4585C31.4321 22.0387 30.993 21.9372 30.0286 21.9372C29.1433 21.9304 28.6899 22.0252 27.9557 22.3502C27.6318 22.4924 27.5527 22.5059 27.4807 22.4314C27.092 22.032 23.335 17.5497 23.335 17.482C23.335 17.4413 23.3998 17.2721 23.4861 17.1096C24.2706 15.5929 23.702 13.6497 22.2122 12.7221C21.4636 12.2549 20.4704 12.0314 19.6211 12.1465ZM16.8285 29.3851C17.2676 29.5814 17.7426 30.0419 17.9585 30.482C18.0737 30.7189 18.1168 30.9356 18.1168 31.308C18.1168 31.7481 18.0881 31.8768 17.8793 32.2762C17.4475 33.1023 16.663 33.5221 15.6769 33.4611C14.8348 33.407 14.1583 32.9804 13.784 32.2695C13.6113 31.9377 13.5825 31.8023 13.5825 31.308C13.5825 30.8137 13.6113 30.6851 13.784 30.3804C14.3886 29.2903 15.6769 28.8705 16.8285 29.3851Z" fill="white"/>
<rect x="24" y="34" width="28" height="11" rx="5.5" fill="white" fill-opacity="0.95"/>
<path d="M30.1523 42H32.2998C33.2051 42 33.791 41.5166 33.791 40.7812V40.7754C33.791 40.2246 33.3105 39.8027 32.7422 39.7881V39.7646C33.2344 39.7031 33.6123 39.334 33.6123 38.8447V38.8389C33.6123 38.1709 33.1025 37.7725 32.2295 37.7725H30.1523V42ZM31.8926 38.6221C32.209 38.6221 32.4053 38.7803 32.4053 39.0352V39.041C32.4053 39.3164 32.2119 39.4834 31.8398 39.4834H31.3945V38.6221H31.8926ZM31.8984 40.2305C32.3086 40.2305 32.5254 40.3945 32.5254 40.6846V40.6904C32.5254 40.9863 32.3057 41.1504 31.9248 41.1504H31.3945V40.2305H31.8984ZM34.2012 42H37.1836V41.0156H35.4434V40.3447H37.0752V39.4307H35.4434V38.7568H37.1836V37.7725H34.2012V42ZM38.7158 42H39.958V38.7568H41.0713V37.7725H37.6025V38.7568H38.7158V42ZM40.7344 42H42.041L42.2607 41.1592H43.5264L43.7461 42H45.0527L43.6729 37.7725H42.1143L40.7344 42ZM42.8818 38.7803H42.9053L43.2979 40.2832H42.4893L42.8818 38.7803Z" fill="#076AE0"/>
</svg>