<svg style="margin-right: 10px;" width="18" height="18" viewBox="0 0 18 18" fill="none"
  xmlns="http://www.w3.org/2000/svg">
  <path
    d="M16 2.50025V3.51125C16.5304 3.51125 17.0391 3.72196 17.4142 4.09703C17.7893 4.47211 18 4.98081 18 5.51125V15.5112C18 16.0416 17.7893 16.5504 17.4142 16.9254C17.0391 17.3005 16.5304 17.5112 16 17.5112H2C1.46957 17.5112 0.96086 17.3005 0.58579 16.9254C0.21071 16.5504 0 16.0416 0 15.5112V5.51125C0 4.46625 0.835 3.51825 1.813 3.23925L12.813 0.0962511C13.1851 -0.0100989 13.5768 -0.0286089 13.9573 0.0421711C14.3377 0.112951 14.6966 0.271091 15.0055 0.504141C15.3145 0.737191 15.5651 1.03878 15.7377 1.38516C15.9102 1.73154 16 2.11326 16 2.50025ZM12.5 9.01123C12.1022 9.01123 11.7206 9.16933 11.4393 9.45063C11.158 9.73193 11 10.1134 11 10.5112C11 10.909 11.158 11.2906 11.4393 11.5719C11.7206 11.8532 12.1022 12.0112 12.5 12.0112C12.8978 12.0112 13.2794 11.8532 13.5607 11.5719C13.842 11.2906 14 10.909 14 10.5112C14 10.1134 13.842 9.73193 13.5607 9.45063C13.2794 9.16933 12.8978 9.01123 12.5 9.01123ZM14 2.50025C14.0001 2.42966 13.9852 2.35986 13.9563 2.29544C13.9274 2.23102 13.8853 2.17345 13.8326 2.1265C13.7798 2.07955 13.7178 2.04429 13.6505 2.02305C13.5832 2.00181 13.5121 1.99506 13.442 2.00325L13.362 2.01925L8.14 3.51125H14V2.50025Z"
    fill="white" />
</svg>