<svg width="400" height="400" viewBox="0 0 400 400" fill="none" xmlns="http://www.w3.org/2000/svg">
<circle cx="200" cy="200" r="200" fill="#076AE0"/>
<path d="M166.058 100.263C152.879 102.051 142.235 110.932 138.877 122.972C138.37 124.76 137.927 128.276 137.927 130.839C137.927 139.601 141.285 146.873 148.064 152.952C158.645 162.31 172.457 164.217 185.446 158.078C187.537 157.125 189.374 156.29 189.564 156.29C189.818 156.29 224.602 196.94 225.552 198.37C225.742 198.728 224.792 200.457 223.335 202.245C217.252 209.755 214.084 219.768 214.844 229.066C215.225 233.715 215.161 234.371 214.147 234.848C213.514 235.146 201.412 239.378 187.22 244.206L161.433 253.027L156.998 248.557C150.028 241.523 142.805 238.543 132.858 238.543C121.327 238.543 111.696 243.371 105.36 252.371C93.0053 269.895 103.016 293.677 125.065 299.041C145.15 303.988 165.361 289.147 165.488 269.418V264.232L192.099 255.113C206.734 250.106 218.899 245.994 219.216 245.994C219.47 245.994 221.307 248.02 223.335 250.464C231.951 260.954 243.799 266.557 257.422 266.557C264.581 266.557 269.967 265.365 276.493 262.325C290.178 255.948 299.175 242.954 299.935 228.411C300.316 220.901 299.048 215.357 295.31 208.145C291.445 200.814 285.109 194.735 277.57 191.039C270.03 187.344 266.165 186.45 257.675 186.45C249.882 186.39 245.89 187.224 239.428 190.085C236.577 191.337 235.88 191.456 235.246 190.801C231.825 187.284 198.751 147.826 198.751 147.23C198.751 146.873 199.322 145.383 200.082 143.952C206.988 130.601 201.983 113.495 188.867 105.329C182.278 101.216 173.534 99.2494 166.058 100.263ZM141.475 252.014C145.34 253.742 149.521 257.795 151.422 261.67C152.436 263.756 152.816 265.663 152.816 268.941C152.816 272.815 152.563 273.948 150.725 277.464C146.924 284.736 140.018 288.432 131.337 287.895C123.924 287.418 117.969 283.663 114.674 277.405C113.153 274.484 112.9 273.292 112.9 268.941C112.9 264.59 113.153 263.458 114.674 260.775C119.996 251.179 131.337 247.484 141.475 252.014Z" fill="white"/>
</svg>
