<svg width="27" height="36" viewBox="0 0 27 36" fill="none" xmlns="http://www.w3.org/2000/svg">
<g clip-path="url(#clip0_123_16)">
<path d="M23.625 0H3.375C1.57359 0 0 1.57359 0 3.375V32.625C0 34.425 1.57359 36 3.375 36H23.625C25.4264 36 27 34.4264 27 32.625V3.375C27 1.57359 25.425 0 23.625 0ZM4.5 14.625C4.5 14.0062 5.00625 13.5 5.625 13.5H7.875C8.49375 13.5 9 14.0062 9 14.625V16.875C9 17.4938 8.49375 18 7.875 18H5.625C5.00625 18 4.5 17.4938 4.5 16.875V14.625ZM4.5 21.375C4.5 20.7562 5.00625 20.25 5.625 20.25H7.875C8.49375 20.25 9 20.7562 9 21.375V23.625C9 24.2438 8.49375 24.75 7.875 24.75H5.625C5.00625 24.75 4.5 24.2438 4.5 23.625V21.375ZM15.75 30.375C15.75 30.9938 15.2438 31.5 14.625 31.5H5.625C5.00625 31.5 4.5 30.9938 4.5 30.375V28.125C4.5 27.5062 5.00625 27 5.625 27H14.625C15.2438 27 15.75 27.5062 15.75 28.125V30.375ZM15.75 23.625C15.75 24.2438 15.2438 24.75 14.625 24.75H12.375C11.7562 24.75 11.25 24.2438 11.25 23.625V21.375C11.25 20.7562 11.7562 20.25 12.375 20.25H14.625C15.2438 20.25 15.75 20.7562 15.75 21.375V23.625ZM15.75 16.875C15.75 17.4938 15.2438 18 14.625 18H12.375C11.7562 18 11.25 17.4938 11.25 16.875V14.625C11.25 14.0062 11.7562 13.5 12.375 13.5H14.625C15.2438 13.5 15.75 14.0062 15.75 14.625V16.875ZM22.5 30.375C22.5 30.9938 21.9938 31.5 21.375 31.5H19.125C18.5063 31.5 18 30.9938 18 30.375V28.125C18 27.5062 18.5063 27 19.125 27H21.375C21.9938 27 22.5 27.5062 22.5 28.125V30.375ZM22.5 23.625C22.5 24.2438 21.9938 24.75 21.375 24.75H19.125C18.5063 24.75 18 24.2438 18 23.625V21.375C18 20.7562 18.5062 20.25 19.125 20.25H21.375C21.9938 20.25 22.5 20.7562 22.5 21.375V23.625ZM22.5 16.875C22.5 17.4938 21.9938 18 21.375 18H19.125C18.5062 18 18 17.4938 18 16.875V14.625C18 14.0062 18.5062 13.5 19.125 13.5H21.375C21.9938 13.5 22.5 14.0062 22.5 14.625V16.875ZM22.5 10.125C22.5 10.7438 21.9938 11.25 21.375 11.25H5.625C5.00625 11.25 4.5 10.7438 4.5 10.125V5.625C4.5 5.00625 5.00625 4.5 5.625 4.5H21.375C21.9938 4.5 22.5 5.00625 22.5 5.625V10.125Z" fill="#308AF5"/>
</g>
<defs>
<clipPath id="clip0_123_16">
<rect width="27" height="36" fill="white"/>
</clipPath>
</defs>
</svg>
