<svg width="32" height="32" viewBox="0 0 32 32" fill="none" xmlns="http://www.w3.org/2000/svg">
<path d="M16 32C24.8366 32 32 24.8366 32 16C32 7.16344 24.8366 0 16 0C7.16344 0 0 7.16344 0 16C0 24.8366 7.16344 32 16 32Z" fill="#627EEA"/>
<path d="M16.1069 7L16 7.39592V18.8837L16.1069 19L21 15.848L16.1069 7Z" fill="#C0CBF6"/>
<path d="M16 7L11 15.848L16 19V13.4241V7Z" fill="white"/>
<path d="M16.0608 20.354L16 20.4392V24.7958L16.0608 25L21 17L16.0608 20.354Z" fill="#C0CBF6"/>
<path d="M16 25V20.354L11 17L16 25Z" fill="white"/>
<path d="M16 19L21 16.1735L16 14V19Z" fill="#8197EE"/>
<path d="M11 16.1735L16 19V14L11 16.1735Z" fill="#C0CBF6"/>
</svg>
