<svg width="200" height="200" viewBox="0 0 200 200" fill="none" xmlns="http://www.w3.org/2000/svg">
<path d="M66.0581 0.262636C52.8795 2.05075 42.2352 10.9317 38.8771 22.9717C38.3703 24.7598 37.9268 28.2764 37.9268 30.8393C37.9268 39.6011 41.2848 46.8727 48.0642 52.9523C58.6451 62.3101 72.4573 64.2174 85.4459 58.0782C87.5368 57.1246 89.3742 56.2901 89.5642 56.2901C89.8177 56.2901 124.602 96.9399 125.552 98.3704C125.742 98.728 124.792 100.456 123.335 102.245C117.252 109.755 114.084 119.768 114.844 129.066C115.225 133.715 115.161 134.371 114.147 134.848C113.514 135.146 101.412 139.378 87.22 144.206L61.4329 153.027L56.9978 148.557C50.0283 141.523 42.8054 138.543 32.858 138.543C21.3267 138.543 11.6962 143.371 5.3603 152.371C-6.99468 169.895 3.01602 193.677 25.0649 199.041C45.1497 203.988 65.3612 189.147 65.4879 169.418V164.232L92.0986 155.113C106.734 150.106 118.899 145.994 119.216 145.994C119.47 145.994 121.307 148.02 123.335 150.464C131.951 160.954 143.799 166.557 157.422 166.557C164.581 166.557 169.967 165.365 176.493 162.325C190.178 155.948 199.175 142.954 199.935 128.411C200.316 120.901 199.048 115.357 195.31 108.145C191.445 100.814 185.109 94.7345 177.57 91.0391C170.03 87.3437 166.165 86.4496 157.675 86.4496C149.882 86.39 145.89 87.2245 139.428 90.0854C136.577 91.3371 135.88 91.4563 135.246 90.8007C131.825 87.2841 98.7513 47.8264 98.7513 47.2304C98.7513 46.8727 99.3215 45.3827 100.082 43.9522C106.988 30.6009 101.983 13.4947 88.8673 5.32895C82.278 1.21629 73.5344 -0.750628 66.0581 0.262636V0.262636ZM41.4749 152.014C45.3398 153.742 49.5214 157.795 51.4222 161.67C52.4359 163.756 52.8161 165.663 52.8161 168.941C52.8161 172.815 52.5627 173.948 50.7253 177.464C46.9237 184.736 40.0176 188.432 31.3374 187.895C23.9245 187.418 17.9687 183.663 14.6741 177.405C13.1534 174.484 12.9 173.292 12.9 168.941C12.9 164.59 13.1534 163.458 14.6741 160.775C19.9962 151.179 31.3374 147.484 41.4749 152.014V152.014Z" fill="white"/>
</svg>
